<mxfile host="app.diagrams.net" modified="2022-07-15T19:13:21.674Z" agent="5.0 (Windows NT 10.0; Win64; x64) AppleWebKit/537.36 (KHTML, like Gecko) Chrome/103.0.0.0 Safari/537.36" etag="1OldlsFVIIuNqVukrjRw" version="20.1.1" type="github">
  <diagram id="9kE4zjhXEEUPlyGOBH9_" name="Page-1">
    <mxGraphModel dx="2858" dy="1053" grid="1" gridSize="10" guides="1" tooltips="1" connect="1" arrows="1" fold="1" page="1" pageScale="1" pageWidth="827" pageHeight="1169" math="0" shadow="0">
      <root>
        <mxCell id="0" />
        <mxCell id="1" parent="0" />
        <mxCell id="okRBM69BKqi_v_l5vlfQ-1" value="" style="shape=cube;whiteSpace=wrap;html=1;boundedLbl=1;backgroundOutline=1;darkOpacity=0.05;darkOpacity2=0.1;size=30;direction=east;flipH=1;fillColor=#b0e3e6;strokeColor=#0e8088;rotation=-90;" vertex="1" parent="1">
          <mxGeometry x="810" y="218.5" width="60" height="285" as="geometry" />
        </mxCell>
        <mxCell id="okRBM69BKqi_v_l5vlfQ-2" value="" style="shape=image;imageAspect=0;aspect=fixed;verticalLabelPosition=bottom;verticalAlign=top;image=data:image/png,iVBORw0KGgoAAAANSUhEUgAAAiwAAAE4CAYAAAB42Kj5AAAAOXRFWHRTb2Z0d2FyZQBNYXRwbG90bGliIHZlcnNpb24zLjUuMiwgaHR0cHM6Ly9tYXRwbG90bGliLm9yZy8qNh9FAAAACXBIWXMAAAsTAAALEwEAmpwYAABLX0lEQVR4nO3dd5zU1PrH8c9DH9rSi/SqgiBItWABUaygogIWrHj1KlaUK1f0woUfir1esFewKyoqCFgRBKVIkd4FRaQJaz+/P5LJZGfrLOwyw37fvPLiJM/JyUmZzNmTZGLOOURERESSWbF9XQERERGR3KjBIiIiIklPDRYRERFJemqwiIiISNJTg0VERESSnhosIiIikvRKFMIy9Ny0iIgUNVaYC4u0vTrh79r0OQ8Xah33VGE0WOjz7JwgPb5/Ww4bNhWAb4Z2Ja3v80Fs+7gLiJx0HwDp719P5LRHg1j6O1cR6TLUS382jMiJd8diH95E5JQHvfR7A4mc8UQs9uZlRHqN9dJvDeCAK94IYt+POZPy5zwDwC+vXETkzCdj871xKVUueAmAn5/vR9v/TA1ic27vyhF3fQrA9JuP5sKX5gPwXL/WnPTYzCDf+1d2ouuDXwIwdeDhvDxnQxA7t20dZizfBkDnppVYuGFXEGtZpxzLf0wHoGmNCHPX7gxibepXYNaq7QB0aJTGl34ZAIc3rZShzGi+aN4VfplNakRY9dOvQaxRtTIs2PALAIfUKc+Gbb8HsTqVSgV5G1Urw7If0oNYs5oR5q3z6nZovQqZYt9t3A3AQbXLsn7rb0GsbuXSGcqM5ovmDa/76i2xejasWob1W3/3yygVpKPj0XrXqVSKTdv/CGK10kryvR87ILQ+0eVH61a3cmk27/wziFWvUIJt6X8BUClSPCgjWk50GbXSSmZaXjj2w45YrGbF2HjNiiXZuN0rs3ZaqUzrGt2ezWpGWLwxdnwcXLtchjJ+3vVXEKtSrjhbdnnrULVciUz7cs0Wb10bVC2dKRbeDvH75K35mwDo1boWD36+KogNPKoRo6auAGBw1yaM/nhlEBt0bGNGTFkOwJBuTfnnm4uD2CNnHMyQ95cCMOKk5tz/WazM67o04sZ3lgBwz2kH0u2hL4PYlGsO5+T/fQXAxH90pNmgD4LYstE9qH7xywBsfvpcIqc+HMTS372ayFG3eenPhxM5fHAs9uWojOedE0bHYpMGETn6Di/96R1EOt8Si824M2OZ3UbGYlNuzRjreFMs9tXdwfLTvxxFpNOgWGzmaCKHDfTS3zyYMe2f/8A/Bx45xEt/MYLIEbfGYtNHZpyv7dWx2JyHg3VIn3EnkeNHxWIfDabhte8CsPqBU7ny9UVB7LGzWgTnr3Pb1mHGim1BrHOTSsxc4Z1rOjVJC84J4J0XwueIlZtjx3jj6mWC8cbVywSfBfA+D+HPc/S4Be/YXbrJOz6b1yobnLvAO3+Fzx9z1sTq0rZBBSYu/BGAk1vWyBRbsN4/B9Ytn+n4D9czmi+aN3p+Dp+bwTvnFirb/y+YFEqDRURERAqQpVRnSb6owSIiIpLq1MMiIiIiSU89LCIiIpL01MMiIiIiSU89LCIiIpL01MMiIiIiSU89LCIiIpL01MMiIiIiSa8I9LDs/00yERERSXm59rCY2UFAT6COP2kDMME5tzj7uURERKTQFIFLQjmuoZndAozHe4nTV/5gwDgzG5zDfAPMbLaZzR47duzerK+IiIjEM0t8SDG59bBcCrR0zv0Rnmhm9wILgVFZzeScGwtEWypuaujlhyIiIrKXFYEeltwaLH8DBwBr4qbX9mMiIiKyr6nBwnXAFDNbBqzzp9UHmgJXZzeTiIiIFKJiqXeJJ1E5Nliccx+YWXOgIxlvup3lnPuroCsnIiIieaAeFnDO/Q3MKIS6iIiISH6k4E20idIPx4mIiKQ69bCIiIhI0lMPi4iIiCQ99bCIiIhI0lMPi4iIiCQ99bCIiIhI0isCPSz7f5NMRERkf2fFEh/yUqxZDzNbYmbLs3qHoJndZ2Zz/WGpmW0Lxf4KxSbs6Sqqh0VERCTVFUAPi5kVBx4BugPrgVlmNsE5tyiaxzl3fSj/NUDbUBHpzrk2e60+zrm9VVZ2CnwBIiIiSaZQr9FETn044e/a9HevzrGOZnY4cIdz7kR//F8Azrn/yyb/dOB259xkf/wX51z5ROuVnULpYblhwndB+t7TD+Lm95YAcNcpB3Lmk18HsTcubUe3h74EYMo1h3Ps/dOD2MfXHUHnUZ8AMGPwMRz3QCw27dojgrwfX3cER9z1aRCbfvPRtLptMgDfDu9Oo+veC2Kr7j+Fhte+C8DqB06l0fWh2H2n0PzmDwBYelcPql44Lohtea4vkVMeBCD9vYFEjvdeWp3+0WAiR9wa5EufPpJI51u89Iw7iZz6cCz27tUZ5+txbyz2wQ2k9XsegO0vXRDkC/IedZuX/nx45uV1v9NLT76FyIl3x2If3kTkzCe99BuXUum8F4LYthfPp8WtkwBYNPIErnhtYRAb07slF4//FoCn+7Si5+Ozg9jbl7fnyNGfAfDFoC60Gz4tiH1923F0uedzAD678ahgH4C3H8LbNn6+YZOXAzC0e1M+WLg5iPVoWZ3Zq3YA0L5RRRas/yWIHVK3PEs27QbgwFplWb/19yBWt3KpYNxL/xaKlebnXd5bJqqUK87mX/4MYtXLl2DTdu9F5bXSSgbp6PiWXV7equVKBOnoeLjMrbtjb7GoXDY2Xrls8Rzz/eTXpVr5Epli29K98UqRLOq8w69zxZKZYuHlbU+Pvb80LVIsyFu9fOb1Wfezt83qVSmdafuFl7d6y69BrGHVMqzc7I03rl6GhRt2BbGWdcqxeKM3fnDtciz/MT2INa0RyVDmDzti271maLxmxZKZ6hItp2mNCB8v+TmIHXtgFe6atgKAm49rwoUvzQ9iz/VrTa8nvOP6rcvaM+jdJUFs9KkH8tq8jQD0PrQ2X6/eEcTaNazIUv+Ya16rbKa6RLdFw6plWPR9bN1bHFCO1T/5sWpl+HzZ1iB2VLPKjJrq1XNw1yac9/xcAF68oA3dH4794PjkqzsH6/Bcv9bc9sGyIDa8RzPGzdkAQN+2dXhm1togdlGH+lzif56f6tOKo+7+LIh9flOXDJ/LQ/4d+8wu+G/3DOfmPs/OCWLj+7cNxsf3b8tF42Lb9pm+rYPxZ/q25p9vLg5ij5xxMJe/sgCAx885hMPvjJ23v7zlaJoN8uqybHSPTOft6Plr24vnE+k1NoilvzWASLeRXnrKrUSOGRaLfTI0OF+mTx9JpOeYWOztK4ic/ICXnngt5Xo/HcR2vXYxNS97FYAfnjibyOmPxeabcCWRE0Z76UmDgvMveOfgZGdmA4ABoUljnXNjQ+N1iL1HELxelk7ZlNUAaARMDU0uY2azgT+BUc65t/akvrokJCIikury8ZSQ3zgZm2vGvOkDvBb3nsEGzrkNZtYYmGpm3zrnVuR3AbrpVkREJNWZJT7kbgNQLzRe15+WlT7AuPAE59wG//+VwMdkvL8lYWqwiIiIpLqCeUpoFtDMzBqZWSm8Rkmmp33M7CCgMvBlaFplMyvtp6sBRwKL4udNhC4JiYiIpLoCeErIOfenmV0NfAgUB55yzi00s2HAbOdctPHSBxjvMj7FczAwxsz+xuscGRV+uig/1GARERFJdQX0S7fOuYnAxLhpQ+PG78hivulAq71ZFzVYREREUl0R+KVbNVhERERSnKnBIiIiIslODRYRERFJfvt/e0UNFhERkVSnHhYRERFJekWhwZLv56DM7OK9WRERERHJHzNLeEg1e/Lg9n+yC5jZADObbWazx47dW68pEBERkawUhQZLjpeEzGx+diGgZnbzxb1QyYXf1iwiIiJ7Weq1PxKW2z0sNYETga1x0w2YXiA1EhERkYSkYo9JonJrsLwLlHfOzY0PmNnHBVEhERERSUyRb7A45y7NIdZv71dHREREJDM91iwiIpLiinwPi4iIiCQ/NVhEREQk+e3/7RU1WERERFKdelhEREQk6anBIiIiIklPDRYRERFJfvt/e0UNFhERkVRXFHpYzDlX0Mso8AWIiIgkmUJtQdS6/LWEv2s3Pd47pVo5hdLDcv4L84L0C+cfynEPeK8hmnbtEbT/77QgNvvfx3Hs/V7s4+uOoMs9nwexz248itPHzgJgwoAOnPXU10Hs9UvacfYz3wDw6kWH0euJ2UHsrcva03nUJwDMGHwMbe6YEsTm3tEtWMZnNx7Fyf/7KohN/EdHTh3jLe/dKzrQceTHQeyrW4/lmPu+AOCT64+k5ZBJACwccQKHDZsa5PtmaFcOv/NTAL685Wi6PvhlEJs68HBOGeMt770rOtL4holBbOW9J3PAFW8A8P2YM2kw8J0gtubB02h03XsArLr/FA685cMgtuTOEzNsvz7Pzgli4/u35cZ3lgBwz2kH8tzsdUHswvb1eHnOBgDObVuHGcu3BbHOTSsxZ81OANo2qMC3638JYq3qlmfaki0AHHdgVaZ891MQ63ZQNd6avwmAXq1r8dq8jUGs96G1g/Heh9bmoS9WBbFrjmyUoZ7x+zm6H7669Via3/xBEFt6Vw/qXf02AOse7kmVC14KYj8/34+0fs8DsP2lC6jY57kgtmP8hZQ96ykAdr9+CZETRgex9EmDiJz+mJeecCXlzn46iO169WIiPcd4sbevIHLao7H53rmKyCkPeun3BmaO+ePp71wVLC990iAi3UbG8k25lcjxo7z0R4OJdL8zFpt8C5EuQ730Z8OCfEHeHvd66Q9uyLzsM5/00m9cGtQ/ug7Rbfbz8/044q5Pg9j0m4+m73NzARh3YRvODR1XL/dvywUvep/v5887lGveXBzEHjrjYC5/ZQEAj59zSKbzwKB3vf08+tQDGTZ5eRAb2r1phmPgpW/WB7F+h9Vl5ortAHRqksai73cFsRYHlGPF5nQAmlSPsGHb70GsTqVSbP7lTwCqly/Bpu1/BLFaaSVZ9oM3X7OaEVb99GsQa1StDD/v+guAKuWK88tvse+E8qUtQ+zHnbEya1QoydbdXqxy2eLs+PXvIFaxTDG2p3vjaZFiQb74vPH51mz5LcjXoGppNm731q92WqmgHtG67P7Dq2fZkkZ6rFpESsJP/naoVr5EpjLX/eyN16tSmiWbdgexA2uVZYH/2T+kbvkgHR2Pnhda1S3P0tB8zWuVZeEGbx+1rFOO+eti87WuV55v1uwA4LAGFflq5fYg1rFxGrNXebH2jSoyceGPQezkljUYO2MNAAM6N8h0/rj305UA3HB0Y/4ZOh4fOeNgbvtgGQDDezTLFLv/M6+c67o04sKXYu/9fa5fazqM+BiAWUOODdLR8bb/8c75c27vmun7rDAVhR4WXRISERFJcWqwiIiISPLb/9srarCIiIikOvWwiIiISNIrCg2WYvu6AiIiIrJnzCzhIY/l9jCzJWa23MwGZxG/yMw2m9lcf7gsFOtvZsv8of+erqN6WERERFJdAXSwmFlx4BGgO7AemGVmE5xzi+Kyvuycuzpu3irA7UB7vJ83+dqfd2t+66MeFhEREclKR2C5c26lc+53YDzQM4/znghMds797DdSJgM99qQyarCIiIikuPxcEjKzAWY2OzQMiCu2DrAuNL7enxbvLDObb2avmVm9BOfNM10SEhERSXH5uenWOTcWGLuHi34HGOec+83MrgCeBbruYZlZUg+LiIhIiiugm243APVC43X9aQHn3BbnXPQnk58A2uV13kTl2mAxs4PMrJuZlY+bvkfXokRERGTvKKAGyyygmZk1MrNSQB9gQtxya4dGTwei7zz4EDjBzCqbWWXgBH9avuXYYDGzgcDbwDXAAjML32wzMuu5REREpFBZPoZcOOf+BK7Ga2gsBl5xzi00s2FmdrqfbaCZLTSzecBA4CJ/3p+B4XiNnlnAMH9avuV2D8vlQDvn3C9m1hB4zcwaOuceIIfV9W/cGQAwZswYKNtpT+ooIiIiOSioH45zzk0EJsZNGxpK/wv4VzbzPgU8tbfqkluDpZhz7hd/wavN7Fi8RksDcmiwxN3I4z4NvaVVRERE9i790i38YGZtoiN+4+VUoBrQqgDrJSIiInlklviQanLrYbkQ+DM8wb+mdaGZjSmwWomIiEieFYUelhwbLM659TnEvtj71REREZFEFYH2in44TkREJNUV+R4WERERSX5FoL2iBouIiEiqK1Zs/2+xqMEiIiKS4tTDIiIiIklP97CIiIhI0isC7RW9rVlERESSn3pYREREUlxRuCRkzrmCXkaBL0BERCTJFGoL4tDbpyT8XTvvP91SqpVTKD0sI6YsD9JDujXl1olLARh5cnMen7kmiF3eqQHPzFoLwEUd6vPavI1BrPehtXnpG++Hd/sdVjdTmTe/twSAu045kOve/i6I3d/zIF6Z+z0A57Q5gK9X7whi7RpW5Bt//LCGFflmTSx2WIOKLFj/CwCH1C3Pys2/BrHG1cvw/bbfATigUik27fgDgFoVS7J1919Bvspli7Prd+8YKlfK2LIr9paDquVKsOPXvwGoWKYYP++KzVelXHG2pXvjlSKxMqLl7P7DGy9b0kj/IwgRKUmG5cXPt/M3b3kVShdj885YXapXKMH6rd761K1cKlh2dPnhuvz0S2y+auVLBPWuUq54pnWP5q1WvkSm+aLbomq5EsG2jG7P+eu87d66Xnm+WLY1iB3ZrDJfLt8GwOFNK/Hp0tibyo9uXoWp320BoOtBVflw0eYgdmKL6rzhH0tnHlqbGSu2BbHOTSqxcMMuAFrWKce8tTuD2KH1K/DZUm/5XZpXDo4V8I6X8PLe/nZTEOvZqhav+sfc2W0OyBSbuPBHAE5uWYOZK7YD0KlJWjA9Ggvnm7MmVq+2DSoww98OnZtW4uMlse1w7IFVMsz31crtQaxj4zQWb/TW9eDa5VjxY3oQa1IjwnJ/vGmNCAs2/BLEDqlTnvVbfwOgbuXSmY7j8HEVTUfHd/vHYNlSmY/V8PEfP99OP1ahTLFMx1V0vHLZ4sFnD7zPX/izuHF77LiqnVaKtT9761C/SmnW+WmAelVKs8E/ButUynz8h9cvvi7hz0a0zvH1rly2eKbP25ot3vIbVI0tO7r81Vu8c03DqmVYsdnbJ02qRzLtr/C6bg59vqqXL8H2dK8uaZHM2zbH7R5a1/htG65z/PLCn+f4c1l4O0TrFa1bOJbTtv1xZ6wuNSqUzDBfTsvL6XiMX154u8QfH9Hlh5cdv05pkdi2jZZTmIpAB4suCYmIiKS6onBJSA0WERGRFFcE2itqsIiIiKQ69bCIiIhI0isC7RU1WERERFKdelhEREQk6RWB9ooaLCIiIqlOPSwiIiKS9IpAe0UNFhERkVSnHhYRERFJekWgvZJ7g8XMOgLOOTfLzFoAPYDvnHMTC7x2IiIikqsi38NiZrcDJwElzGwy0AmYBgw2s7bOuRGFUEcRERHJQRFor5Db25l6A0cCRwP/BHo554YDJwLnZjeTmQ0ws9lmNnvs2LF7rbIiIiKSmZklPOSx3B5mtsTMlpvZ4CziN5jZIjObb2ZTzKxBKPaXmc31hwl7uo65XRL60zn3F7DbzFY453YAOOfSzezv7GZyzo0Foi0VF36zsoiIiOxdBXFJyMyKA48A3YH1wCwzm+CcWxTKNgdo75zbbWZXAncR69BId8612Vv1ya2H5XczK+un20UnmlkakG2DRURERFJeR2C5c26lc+53YDzQM5zBOTfNObfbH50B1C2oyuTWYDk6WhHnXLiBUhLoX1CVEhERkbwzy88Qu33DHwbEFVsHWBcaX+9Py86lwPuh8TJ+uTPMrNeermOOl4Scc79lM/0n4Kc9XbiIiIjsufxcEoq7fWNPl38+0B44JjS5gXNug5k1Bqaa2bfOuRX5XYZ+h0VERCTFFdBTQhuAeqHxuv60uGXb8cAQ4JhwR4dzboP//0oz+xhoC+S7wZLbJSERERFJcgX0lNAsoJmZNTKzUkAfIMPTPmbWFhgDnO6c+zE0vbKZlfbT1fCeOA7frJsw9bCIiIikuILoYXHO/WlmVwMfAsWBp5xzC81sGDDbOTcBGA2UB171G0FrnXOnAwcDY/wniosBo+KeLkqYGiwiIiIprlgBXRPyf9V+Yty0oaH08dnMNx1otTfrogaLiIhIiisKv3SrBouIiEiKK/LvEhIREZHkV2z/b6+owSIiIpLq1MMiIiIiSa8ItFcw51xBL6PAFyAiIpJkCrUJceqYWQl/1757RYeUauYUSg/LsMmxtzUP7d6UWau2A9ChURo/7/oriFUpV5zdv3vbvGwpY/cfse1ftmRsvGxJ45ffYrHypWPj5UsbO3+LvfaoQuli/Pqnly5TgiAdP16mBKT/EYtFSpKhLpt2xIK1KpbMsp5lSxq7fo/Vq1wpy5Bv6+7YulYuW5wfd3pl1qhQkqWbdgex5rXKsvzHdACa1oiw+qdfg1jDamWC8XA6Ov7TL94KVStfgm3pseVVihTPUM/47ZDTtt24/XcAaqeVYv3W2Nsa6lYuzeadXkHVK5Rgx6+x7V6xTLFgP1QoXSzzts1hm0W3U+WyxYP1ia5TuMydoeVVKBMbD6ej49FllCtlOdYl/niMrlPFMsUy7b/Nft2qly+R6fgIb7P47RIuM1znnI6d+M9CeBvltK7xdQ7Pl9P+ip9v5WbvOGtcvQxLQsfqgbXK8s2aHQAc1qAiS38IHcc1Mx7HKzanB7Em1SNs2OZtozqVSrH259hxVb9KaRZ9vwuAFgeUy3GfZDoGQusQrXO03uG6xMcmLd4MwAkHV2dV6DPVqFqZ4HNUKVKc7emx5aVFimX4DMd/NsJ1id+34fNV/Lpntc2aVI8E503wzp2L/W108AHl+CF0/NWsWDLDcRX/eQ5vv/hYXs8R8cdjeDtE9ytk3Lf1q8TOF+CdM8LbdndoG5XN5dwZXvc1W2Lbr0HV0sG2qBn6HIL3Wdyyy1t+1XIlMu2v9Vt/99OlmLduZxA7tF4Fvl3/CwCt6pbns6Vbg1iX5pWZvNh7S033g6vxwcLNQaxHy+oUJt3DIiIiIklP97CIiIhI0isC7RU1WERERFJdQf3SbTLRyw9FREQk6amHRUREJMUVgQ4WNVhERERSnW66FRERkaRXBNorarCIiIikuqJw060aLCIiIilu/2+uqMEiIiKS8orCPSwJP9ZsZs8VREVEREQkf4pZ4kOqybGHxcwmxE8CjjOzSgDOudOzmW8AMABgzJgx0KjrntdUREREslQUelhyuyRUF1gEPIH31mUD2gP35DSTc24sMDY6Gn75oYiIiOxdRaC9kuslofbA18AQYLtz7mMg3Tn3iXPuk4KunIiIiOTOzBIeUk2OPSzOub+B+8zsVf//H3KbR0RERApXKt6Tkqg8NT6cc+uBs83sFGBHwVZJREREEpGKPSaJSqi3xDn3HvBeAdVFRERE8mH/b67o8o6IiEjK0y/dioiISNIrAu2VxH84TkRERJJLQT0lZGY9zGyJmS03s8FZxEub2ct+fKaZNQzF/uVPX2JmJ+7pOqrBIiIiIpmYWXHgEeAkoAXQ18xaxGW7FNjqnGsK3Afc6c/bAugDtAR6AI/65eWbGiwiIiIpzizxIQ86Asudcyudc78D44GecXl6As/66deAbuZ13/QExjvnfnPOrQKW++XlmxosIiIiKa6YWcJDHtQB1oXG1/vTsszjnPsT2A5UzeO8CVGDRUREJMXlp4fFzAaY2ezQMGBfr0dO9JSQiIhIisvPD8fFvfcvKxuAeqHxuv60rPKsN7MSQBqwJY/zJsScc3syf14U+AJERESSTKE+aHzNm4sT/q596IyDc6yj3wBZCnTDa2zMAvo55xaG8vwTaOWc+4eZ9QHOdM6dY2YtgZfw7ls5AJgCNHPO/ZVoPaMKpYflqjcWBelHz2zByf/7CoCJ/+jIoHeXBLHRpx7IQ1+sAuCaIxtx83ux2F2nHMiLX68H4Lx2dZn63ZYg1vWgqsxcsR2ATk3SmLVyexDr0DiNr1d7bxNo17AiC9b/EsQOqVueZT+kA9CsZoTFG3cFsYNrl2PhBm+8ZZ1yTFq8OYidcHD1YPldD6rKS9949ep3WF2ufD22ro+d1YKTHpsJwPtXdqLJje8HsRX3nET1i18GYPPT5xLpOSaIpb99BZEe93rpD24gcurDsdi7VxM57VEv/c5VRM58MhZ741La/mcqAHNu78o9n6wMYjce05i5a3cC0KZ+BdZv/S2I1a1cmpWbfwWgcfUyrNicHsSaVI9kjP0YitXIGNu4/fcgVjutFBu2eeN1KpViy64/g1jVciXYuts7ZiuXLc7an2N1qV+lNOPmeI3wvm3r0Oq2yUHs2+Hdg2244p6TaHjtu0Fs9QOnUu/qtwFY93BPql00Poj99EyfYPynZ/pQ49JXgtiPT55D1f7jANjybN/M2/qE0V560qBMZUbzpr97NZHjR8Xm+2gwka4jvPTUIUSOGx6LTbstyJv+0WAiJ97tpT+8ichRt8XyfT48wzFQ9cJxQWzLc32JnPGEF3vzMiK9Yn8gpb81gMhJ93np96+nygUvBbGfn+9H/WsmALD2odMzHTuR7nd66cm3BPUK6tZtpJeeciuRkx+IxSZeS7neTwOw67WLMx3H5c72Y69eTPlzngliv7xyEZHTH/PyTbgyWJ/oOkXr/fPz/ag94PUgtnHsWRn283EPTA9i0649govGzQfgmb6tufyVBUHs8XMO4bq3vwPg/p4HMXji0iA26uTmGeaL/wyf9/xcAF68oA29npgdxN66rD09H/fG3768PZeM/zaIPdWnFXdNWwHAzcc1yXSeO/uZbwB49aLDuPCl+UHsuX6x5T92VovgHHjXKQdmqvOAV73vjLFntwzKi5Z51lNfA/D6Je2C+kfX4dnZ3m0F/dvX47OlW4NYl+aVWe5/vpvWiGQ6R4Rj8eeIRd9758oWB5TLdI6dv84bb12vfKZzbLScJtUj/LjzjyBWo0LJHM8R4fPvlO9+CmLdDqrGW/M3AdCrda1M++TUMbMAePeKDjS/+YMgtvSuHhx7v3csfXzdEdS87NUg9sMTZ2c4xtP6Ph/Eto+7gErnvQDAthfPz3SOKEwF8dP8zrk/zexq4EOgOPCUc26hmQ0DZjvnJgBPAs+b2XLgZ7wng/DzvQIsAv4E/rknjRXQJSEREZGUV1AvP3TOTQQmxk0bGkr/CpydzbwjgBF7qy5qsIiIiKQ4va1ZREREkp7e1iwiIiJJTz0sIiIikvSKQAeLGiwiIiKpLo+/XJvS1GARERFJcUXhZ+vVYBEREUlxRaCDRQ0WERGRVKdLQiIiIpL0ikB7JbEGi5kdhfdegAXOuUkFUyURERGRjHK8T8fMvgqlLwceBioAt5vZ4BzmC15ZPXZsTi+CFBERkT1VzBIfUk1uPSwlQ+kBQHfn3GYzuxuYAYzKaqa4V1a78MsPRUREZO/SPSxQzMwq4/XEmHNuM4BzbpeZ/ZnzrCIiIlIYikB7JdcGSxrwNWCAM7PazrmNZlbenyYiIiL7WCpe4klUjg0W51zDbEJ/A2fs9dqIiIhIwqwI9CHk67Fm59xuYNVerouIiIjkQ5HvYREREZHkpwaLiIiIJD0rAnfdqsEiIiKS4tTDIiIiIkmvCHSwqMEiIiKS6vTDcSIiIpL0dElIREREkl4R6GBRg0VERCTVFSsCPxxnzrmCXkaBL0BERCTJFGoL4tHpqxP+rr3qiIYp1coplB6WS8Z/G6Sf6tOK7g/PAGDy1Z05+t4vgtinNxxJp//7BICZ/zqGLvd8HsQ+u/EoWt02GYBvh3fn0NunBLF5/+lG05veB2D53SdRtf+4ILbl2b5EThgNQPqkQUROeTCIpb83kCoXvATAz8/3o+xZTwWx3a9fQqTnGC/f21cQ6X5nbL7JtxA54lYvPX0kkaPv8NKf3kGk06BYvpmjiXS+xUvPuJPIkUNisS9GEOky1Et/NoxIt5Gx2JRbM9b5qNtisc+HZ1z24YNjsS9HETnee4F2+keDg3WLrl+74dMA+Pq24+j99DdB7LWLD+OK1xYCMKZ3S04fOyuITRjQgWGTlwMwtHtTXvh6fRA7v11dpnz3EwDdDqrGm/M3BbEzWtfi5TkbADi3bZ0gHR2PlnN+u7o8+dXaIHZpx/o88sVqAP55ZEMe+iL2g8rXHNmI2z5YBsDwHs0Y8OrCIDb27Jac/Yy3Tq9edBgdRnwcxGYNOZY2d3jHy9w7utH+v9OC2Ox/H5fhuDrk35OD2IL/dufUMd62ePeKDlzz5uIg9tAZBzPo3SUAjD71QAZPXBrERp3cnFv98ZEnN+eCF+cFsefPO5STHpsJwPtXduLwOz8F4MtbjqbZoA+CfMtG98hwTMfH6l71FgDrH+1F85tjsaV39cjw+Ypuk+h2ia7DQ2cczLOz1wWx/u3r8eGizQCc2KI6c9bsDGJtG1Rg0fe7AGhxQDlW/JgexJrUiLBmy28ANKhamoUbdgWxlnXKsWD9LwAcUrc8c9fGymxTv0KQt2WdcqzYHCqzeoRZq7YD0KFRWlCvaN0enb4agKuOaMhxD0wPYtOuPYJal78GwKbHe1P1wtB54Lm+RE5/DID0CVdmOg/UuPQVAH588hwixw2PxabdRuTkB7z0xGszzRfpOsJLTx0SfC7B/2z65aRPu43IMcNisU+GEml3rZf++oHg/AH+OcT/vKd/Pjw4Z6R/MSI4H4F/TgovO74M/zyUPnN0kC/I22usl35rALUHvB7ENo49i2Pu887Hn1x/ZKbj9srXFwHw2FktOPPJr4PYG5e2Y+iH3udy2InNePDz2Gd24FGNeGXu9wCc0+aAYN+Bt//u/XQlADcc3Tj43IP32b//M6+c67o04qo3FgWxR89skeFc1mDgO0FszYOnkdbveQC2v3QB5Xo/HcR2vXZxhmMgPlbpvBcA2Pbi+Zm+Qyqf/yIAW184j8hpj8a25ztXZTjnxm/rwlQU7mEptq8rICIiIqnFzKqY2WQzW+b/XzmLPG3M7EszW2hm883s3FDsGTNbZWZz/aFNbstUg0VERCTFFTNLeNhDg4EpzrlmwBR/PN5u4ELnXEugB3C/mVUKxQc559r4w9xc13FPaywiIiL7llniwx7qCTzrp58FesVncM4tdc4t89PfAz8C1fO7QDVYREREUtw+6GGp6Zzb6Kc3ATVzymxmHYFSwIrQ5BH+paL7zKx0bgvUY80iIiIpLj/tDzMbAAwITRrrnBsbin8E1Mpi1gx3FDvnnJll+5SSmdUGngf6O+f+9if/C6+hUwoYC9wCDMu6BI8aLCIiIikuP5dL/MbJ2Bzix2cXM7MfzKy2c26j3yD5MZt8FYH3gCHOuRmhsqO9M7+Z2dPATbnVV5eEREREUpyZJTzsoQlAfz/dH3g7izqVAt4EnnPOvRYXq+3/b3j3vyzIbYFqsIiIiKQ4y8ewh0YB3c1sGXC8P46ZtTezJ/w85wBHAxdl8fjyi2b2LfAtUA34b24L1CUhERGRFFfYb2t2zm0BumUxfTZwmZ9+AXghm/m7JrpMNVhERERSXBH4oducLwmZWSf/hhnMLGJm/zGzd8zsTjNLK5wqioiISE72we+wFLrc7mF5Cu+X6gAeANKAO/1pT2c3k4iIiBSefXDTbaHL7ZJQMefcn366vXPuMD/9uZnNzW6m8LPdY8aMgYqH73FFRUREJGtF4Qma3BosC8zsYufc08A8M2vvnJttZs2BP7KbKe7Zbjcj9LZmERER2btSscckUbk1yi4DjjGzFUAL4EszWwk87sdERERkH9sHjzUXuhx7WJxz2/Gen64INPLzr3fO/VAYlRMREZHcFYUeljw91uyc2wHMK+C6iIiISD7oHhYRERFJekWhh6UoNMpEREQkxamHRUREJMXt//0rarCIiIikvCJwRUgNFhERkVRXrAj0sajBIiIikuLUwyIiIiJJz9TDIiIiIsmuKPSwmHOuoJdR4AsQERFJMoXahPhg4eaEv2t7tKyeUs2cQulhueK1hUF6TO+WDJ64FIBRJzfnrmkrgtjNxzVh7Iw1AAzo3IBX5n4fxM5pcwAvfr0egPPa1WXcnA1BrG/bOkHec9ocwGvzNgax3ofWZsp3PwHQ7aBqvLsg9laBUw+pyZvzNwFwRutaTFz4YxA7uWUNpi3ZAsBxB1bl8ZlrgtjlnRow/KPlANx2fFOemrUWgEs61OfJr9YG+S7tWJ//fbkagH8c3pB7PlkZxG48pjHXvf0dAPf3PIi2/5kaxObc3pXy5zwDwC+vXETFPs8FsR3jLySt7/MAbB93QZCOjte49BUAfnzyHJre9H4QW373SZz46EwAPryqExe+ND+IPdevdYZ9cuXri4LYY2e14Nj7pwPw8XVH0OaOKUFs7h3dOPzOTwH48pajOe6B6UFs2rVHZFjeUXd/FsQ+v6lLMP75TV3o9cTsIPbWZe0ZOcU7Jm7t1iTTfp65YjsAnZqk8fXqHUGsXcOKzFu3E4BD61Vg6Q+7g1jzmmVZv/V3AOpWLsWmHbH3dtaqWJKffvFeSF6tfAl+3BmL1aiQMbbsh/Qg1qxmhHlr/eXVrxAsO7r8+et+AaB1vfIs/zE2X9MaEVb4401qRNi03VterbSSrN/6W5CvbuXSGZa9eeefQax6hdh49Qol2J7+dxBLixRjyy4vVrVcCVZu/jWINa5ehm/8bXZYw4rBcQvesXvKmK8AeO+KjlS9cFwQ2/JcX2pc4h9XT51DtYvGB7GfnumT4XiMnPZoEEt/5yoipz/mpSdcSeSYYbHYJ0OJHH2Hl/70DiKHD47FvhxFpMtQL/3ZMCIdb4rFvrqbSIcbvPSse4kcdVss9vlwIkfc6qWnjyTSdUQsNnUIkeNHeemPBhM5YXQsNmkQkeOGe+lpt2WuS9urvfSch4kcNjAW++bBjPP1GhuLvTWASI97vfQHNxDpNjIWm3JrsA1/eqYPVfuHtvWzfalw7rMA7Hy5P+V6Pw3ArtcuJq1f6LP+0gVEeo7xynv7iszr2v56Lz37viAdjPt506cOodzZTwexXa9ezIG3fAjAkjtPpOuDXwaxqQMP57KXFwDwxLmH8M83FwexR844mO4PzwBg8tWdaXHrpCC2aOQJ1Lv6bQDWPdyTOle+GcQ2PHYGja5/D4BV951Cg4HvBLE1D56WYb7GN0wMYivvPTnIu+bB06h71VtBbP2jvWg5xFv+whEnZDonRc9tj53VgqveiJ3nHj2zRXBOfK5fazqM+DiIzRpybIbzcfWLXw5im58+l9oDXgdg49izOOAfbwSx7/93JoWpKPSw6JKQiIhIilODRURERJKebroVERGRpFds/2+vqMEiIiKS6tTDIiIiIklP97CIiIhI0lMPi4iIiCQ93cMiIiIiSa8o9LAU29cVEBERkdRiZlXMbLKZLfP/r5xNvr/MbK4/TAhNb2RmM81suZm9bGalclumGiwiIiIpzizxYQ8NBqY455oBU/zxrKQ759r4w+mh6XcC9znnmgJbgUtzW2CODRYzG2hm9fJWdxEREdkXLB/DHuoJPOunnwV65bmuZgZ0BV5LZP7celiGAzPN7DMzu8rMque1QiIiIlI4ipklPOyhms656Iv7NgE1s8lXxsxmm9kMM+vlT6sKbHPORV+Sth6ok9sCc7vpdiXQDjgeOBf4j5l9DYwD3nDO7cxqJjMbAAwAGDNmDFQ5Mrd6iIiISD7lp/kR/q72jXXOjQ3FPwJqZTHrkPCIc86ZWXZvi27gnNtgZo2BqWb2LbA9H9XNtcHinHN/A5OASWZWEjgJ6AvcDWTZ4+KvcHSlXfhtzSIiIrKX5aPFEvddnVX8+GwXZ/aDmdV2zm00s9rAj9mUscH/f6WZfQy0BV4HKplZCb+XpS6wIbf65nZJKMMmcM794Zyb4JzrCzTIrXAREREpeJaPf3toAtDfT/cH3s5UJ7PKZlbaT1cDjgQWOeccMA3ondP88XJrsJybXcA5tzu3wkVERKTg7YOnhEYB3c1sGd5tI6O8elh7M3vCz3MwMNvM5uE1UEY55xb5sVuAG8xsOd49LU/mtsAcLwk555bmazVERESk0BT2z8Y557YA3bKYPhu4zE9PB1plM/9KoGMiy9Qv3YqIiKS6/f+HbtVgERERSXVF4af51WARERFJcXvhnpSkpwaLiIhIiisC7RU1WERERFJeEWixqMEiIiKS4nQPi4iIiCQ93cMiIiIiSa8ItFcw7xdyC1SBL0BERCTJFGobYt7anQl/1x5av0JKtXMKpYdl0LtLgvToUw9k1NQVAAzu2oSnZq0NYpd0qM/Lc7z3H53btg5vf7spiPVsVYtHp68G4KojGjL0w2VBbNiJzbh1ovejvCNPbs4NE74LYveefhC9n/4GgNcuPoyOIz8OYl/deizHPTAdgGnXHkGXez4PYp/deBSdR30CwIzBx1Dvn7HXHKx7pCeH/HsyAAv+252uD34JwNSBh9P0pveDfMvvPolal78GwKbHe1P5/BeD2NYXziNy+mMApE+4ksiJdwex9A9vItJtpJeeciuRI2Mvxkz/YgSRzrd46Rl3Bulg/OQHvPTEa6l64bggtuW5vtS87FUAfnjibA74xxtB7Pv/nUmj694DYNX9p9D2P1OD2Jzbu9LkRm+dVtxzEi1unRTEFo08gYbXvgvA6gdOpdJ5LwSxbS+eT4OB7wCw5sHTaDbogyC2bHQPDr19CgDz/tONo+7+LIh9flMXTh87C4AJAzrQ64nZQeyty9pniEX3K3j7ts+zcwAY378tgyfGfqR51MnNeeiLVQBcc2QjXvx6fRA7r11dXpvnvSG996G1g2MMvOMs+uLOMb1bcvkrC4LY4+ccQt/n5gIw7sI2nPnk10HsjUvbccqYrwB474qOnPDIjCA26Z+dg/FJ/+zMgFe98see3ZJhk5cH+YZ2b8rjM9cAcHmnBoybE3svWN+2dYLPzSUd6nPXtBVB7ObjmnDRuPkAPNO3NZeM/zaIPdWnFde97X027u95EEeOjm33LwZ1ocalrwDw45PnEOkVex9a+lsDiBx9h5f+9A4inQbFYjNHEzl8sJf+chSRjjfFYl/dTaT99V569n1EDhsYi33zYJA3/au7M5cZjp36cCz27tW0HvoRAPOHHc8dk2LngTtOaBZsp/A2im6nF/z9fn67utzzycogduMxjZmxfBsAnZtWynQMTF78EwDdD67Gis3pQaxJ9Ugw3qR6hMUbdwWxg2uXY+XmXwFoXL0Mm7b/EcRqpZVk9RYv1rBqGeaujb30vk39Csxa5b3ItkOjNL5YthWAI5tV5ps1O4J8hzWoyLfrfwGgVd3yzF/3SxBrXa8867f+BkDdyqX56Zc/g1i18iVY/ZO/7Gpl+Hp1rMx2DSvy3gLv/XWnHFKD4R/Fjsfbjm/Kje945/F7Tjsw+KyB93mLfoY/v6kLbe6YEsTm3tGNRtf755b7Tsl0/jho8IcAfDfqRFoOicUWjjghw36Onp/AO0el9XsegO0vXUC1i8YHsZ+e6UPzm71zzdK7emQ6J0VOexSA9HeuynSMlz3rKQB2v34JkZPui8Xev57IMcO89CdDM59zczgfF6qUanrkjy4JiYiIpDjddCsiIiJJTzfdioiISNIrAu0VNVhERERSXhFosajBIiIikuJ0D4uIiIgkPd3DIiIiIkmvCLRX1GARERFJeUWgxaIGi4iISIrTPSwiIiKS9Ir8PSxmVgroA3zvnPvIzPoBRwCLgbHOuT9yml9EREQKXhFor+Taw/K0n6esmfUHygNvAN2AjkD/gq2eiIiI5KoItFhya7C0cs61NrMSwAbgAOfcX2b2AjAvu5nMbAAwAGDMmDFwwDF7rcIiIiKSke5hgWL+ZaFyQFkgDfgZKA2UzG4m59xYIPoqTBd+W7OIiIjsXUX+HhbgSeA7oDgwBHjVzFYCnYHxOc0oIiIihaMItFdybrA45+4zs5f99Pdm9hxwPPC4c+6rwqigiIiISLHcMjjnvnfOfe+ntznnXlNjRUREJIlYPoY9WZxZFTObbGbL/P8rZ5HnODObGxp+NbNefuwZM1sVirXJbZm5NlhEREQkuVk+/u2hwcAU51wzYIo/noFzbppzro1zrg3QFdgNTAplGRSNO+fm5rZANVhERERSnFniwx7qCTzrp58FeuWSvzfwvnNud34XqAaLiIhIiivkK0IANZ1zG/30JqBmLvn7AOPipo0ws/lmdp+Zlc5tgWqwiIiIpLp8tFjMbICZzQ4NAzIUafaRmS3IYugZzuecc4DLtmpmtYFWwIehyf8CDgI6AFWAW3JbRb1LSEREJMXl556UuN9Myyp+fLbLM/vBzGo75zb6DZIfc1jUOcCb4df5hHpnfjOzp4GbcquvelhERERS3D64h2UCsdfz9AfeziFvX+IuB/mNHMzM8O5/WZDbAtVgERERSXH74B6WUUB3M1uG9/tsowDMrL2ZPRHUy6whUA/4JG7+F83sW+BboBrw39wWqEtCIiIiKa6wf5rfObcF70XI8dNnA5eFxlcDdbLI1zXRZZp3r0yBKvAFiIiIJJlCbUKs3/p7wt+1dSuXSqlf9C+UHpbznp8bpF+8oA0th3i/G7NwxAlUv/jlILb56XNJ6/c8ANtfuoC0vs8Hse3jLiBy1G0ApH8+nEinQUEsfeZoIh1u8NKz7iXSMXbvTvpXdxM54lYvPX0kkS5DY7HPhhHpOsJLTx1C5ITRsdikQUR6efcipb81IKhztN4jpiwHYEi3prz97SYAeraqxaxV24N8HRql8d1G75Hzg2qXZdH3u4JYiwPK8dnSrQB0aV6ZKd/9FMS6HVSNN+d7ZZ7RuhZfLNsaxI5sVpmZK7xldGqSxterdwSxdg0rMmfNTgDaNqjA7FWxWPtGFZm71ou1qV+BxRtjdTm4djkWrP8FgEPqlg/KiJYTXacOjdL4PFSXo5pV5ps13jIOa1AxKCNazrx1XjmH1qvAwg2x5bWsUy7DOny5fFsQO7xpJR76YhUA1xzZiG4PfRnEplxzOB1HfgzAV7ceS6vbJgexb4d3p8mN7wOw4p6TaHjtu0Fs9QOnUrHPcwDsGH8hkTOfDGLpb1yaYT9Huo2MxabcmuGYK3f200Fs16sXEzl+lBf7aDCRo++IzffpHcFxlv7ZsMwxfzz90zuInPyAl554LZFjhsXyfTKUyHHDvfS024icdF8s9v71Qd70T4YSOTz2e03pX44KxtO/HEXkjCdisTcvCz5T28ddQKTHvbHYBzcE654+5dbgcwH+ZyO8rn69grqFY/HzhbdD/LYNL+/Uh2Oxd68mcsqDXvq9gZnW4cjRnwHwxaAu3PbBsiA2vEczej4+G4C3L29Pp/+L9UDP/NcxHHHXpwBMv/noTJ/n1kM/AmD+sOM5+X+xH/Ke+I+OXDz+WwCe7tOKUVNXBLHBXZtwzZuLAXjojIO58vVFQeyxs1rw1Ky1AFzSoT7vLvghiJ16SM0Mn+9hk5cHsaHdm3Lze97LYu865UBufMdL33PagVz40vwg33P9WjPk/aUAjDipOXdMim2HO05oxtgZawAY0LkBL3y9Poid364uz/j1uqhDfV4Mxc5rV5dX5n4PwDltDsj0WZ/hf047N63EvLWxc8Sh9StkOJdNW7IliB13YNXg831400rMWhk6PzZOy3COiD8/Rs97RzarnOm8OmnxZgBOOLg6X4XK7Ng4jfnrvPNQ63rlM50fo+e9g2uXy3QODJ/L3lsQu3/0lENq8PKcDQCc27YOU7+LrV/Xg6pmWPcZoXNZ56aVKEx6+aGIiIgkvSLQXlGDRUREJNWph0VERESS3l54N1DSU4NFREQk1e3/7RU1WERERFJdEWiv6IfjREREJPmph0VERCTF6aZbERERSXq66VZERESS3/7fXlGDRUREJNUVgfaKGiwiIiKpTvewAGbWGDgT7/XQfwFLgZeccztynFFEREQKRVG4hyXHx5rNbCDwP6AM0AEojddwmWFmx+Yw3wAzm21ms8eOHbv3aisiIiKZmCU+pJrcelguB9o45/4ys3uBic65Y81sDPA20DarmZxzY4FoS8V9Enpbs4iIiEii8nIPSwm8S0GlgfIAzrm1ZlayICsmIiIieZOKPSaJyq3B8gQwy8xmAl2AOwHMrDrwcwHXTURERPKgKNzDkmODxTn3gJl9BBwM3OOc+86fvhk4uhDqJyIiIrlQDwvgnFsILCyEuoiIiEg+FIH2in6HRUREJOUVgRaLGiwiIiIprsjfwyIiIiLJT/ewiIiISNIrAu0VNVhERERSXhFoseT40/wiIiIiyUA9LCIiIilON92KiIhI0isKN93inCuUARiwN/OpzOQvc39bH5WZ/GXub+ujMvev40PDng2FtyCYvTfzqczkL3N/Wx+Vmfxl7m/rozL3r+NDw54NuulWREREkp4aLCIiIpL0CrPBMnYv51OZyV/m/rY+KjP5y9zf1kdl7j/Llj1k/jU4ERERkaSlS0IiIiKS9NRgERERkaRXYD8cZ2YHAT2BOv6kDcAE59ziuHwdAeecm2VmLYAewHfOuYlx+ToBi51zO8wsAgwGDgMWASOdc9tDeRsDZwL1gL+ApcBLzrkdBbCqIiIiUsAKpIfFzG4BxuO9jukrfzBgnJkNDuW7HXgQeMzM/g94GCgHDDazIXHFPgXs9tMPAGnAnf60p0NlDgT+B5QBOgCl8RouM8zs2L25nvuKmdXYw/lLmNkVZvaBmc33h/fN7B9mVjIub1kzu9nMBplZGTO7yMwmmNldZlZ+z9ak8JlZYzN7ysz+a2blzexxM1tgZq+aWcO9uJw92keFxcyq7us67CtmtnRf1yE3RXn/iGRSED/ugtejUTKL6aWAZaHxb4HiQFlgB1DRnx4B5sfNuziU/iYuNje+TD9dFvjYT9cH5uzrH77J4/Z7P5SuEjdUBVYDlYEqcfN9A/wbaJJL+eOAx4DOQF1/6OxPezku7yvAPcCjwBS8RmUXYDTwfCjf1UA1P90U+BTYBswEWsWVWQy4BHgPmOfXezxwbFy+4sAVwHDgyLjYv0Pp1qF0SX8bTABGAmXj5vsUuBKvh24BcCNeg/ZSYGoS7aM0YBTwHfAzsAVY7E+rFMpXy99vj/jLvcP/DLwC1I4rc1RoH7UHVgLLgTXAMaF85YFhwEJgO7AZmAFclEU9KwL/BzwP9IuLPRpK94hbtyeB+cBLQM24+doD04AX/H0z2a/HLKBtHvfP2LjxnXjnmB1+eide7+tOYEco3xvA+UD5vbF/EtlHed0/ie6jPRnij9+4WIm4+rTPKX8W8x+UhzxXZTGtdV6X4ec3oBNer/uZftqyyFcMKOanS+H14Md/fkuF5wWOwzuHnLQ3t7uGbPZlgRTqfYgbZDG9AbAkND4nq7Q/Pjdu/FXgYj/9NNDeTzcHZoXyfQuU9tOVCf0KIbAgrsx9drL1PwxZDe2AjaF8fwOr4oY//P9Xxi17FXA3sBavV+t64IAs9sPSHPbd0rjxuf7/Bmwi9mSZEWpUAgtD6feAM/z0scAXcWU+jXfSPgq4H+/E2x34CLgmlO8JfxtfB3wN3BuKfZNN+h7gGeAY4D7gubhlh4+5tdnFkmAffQjcAtQKTavlT5sUmvYBcA1eA2y+H6/nT3s7rsxvQ+lpQIfQZyj8OXkbuAivIXsDcBvQDHgW7/JruMzX8b5oe+E1El8n9vnLbh89AfwX73xwPfBWXJlfAScBfYF1QG9/ejfgy1C++IZiuMG4Pq7MB4HnCH1egVVZbPcNwGt4jZBXgDOAUvndP4nso7zun3zso1Z4jZl1eI/gVg5v61A6/EdAC7w/PFfhNb47xZV5EV4jbam/r1bi/UGzDuib3fklroz4z98NccONwE/R8VC+v4BleH/ItMhlGSfgNfre94+7J/z9sRw4IZSvF/ADsBHvVoaZ/vqsB04L5ZsX3X7AIGA63h8gk4H/y8t6a8j/UDCFevehRA+Ssf4QPUjCX/4z8f8Cxm/Z+uk0MveipOF9Ea3w5/vD/5B8Ahwaynetf1J4HK/hFG3kVAc+jStzX55s/wKm4p2Y4of0UL4b/W3XKjRtVTbbPVzPLni9Ipv8MgeEYjOAs+O2eTHgXGBmXJlzQ+mn4mLzQulwQ3RWXL743rL48Rn+/6XJ2JMWbhCV8I+jN/x8c0KxcHoufu8ecY0qf9rXeF8AHfBOhtGGb9Ms8u7LfbQkq/mz2NbhdY//ApgbN74Y/6/i6DYPxcJflvPiYrNCx8h3uSxjCPAFXqMhu89Q/Dzx4zmtUzj2F945INxQjI7/nsV2a+fvz4H+uqzMIs8c//+KwAXARLzei6fJ+AWXp/2TyD7K6/7Jxz76HO+cXAm4Ca9XpkkWdQvvo/fwew2AjsD0+PoA1YBGeL1W0fJqkvFz+2A2w0OEerb8vDuBl4GhwO3+sDWaDm9P4BBgBN53yjy8xmDDLPbF4mymNyLjuWYOXoMzuj4H+tMbkM0fvcBsIOKnSxB3/tCw94eCK9j74HQGzvKHzviXakJ5SmczbzXiLiOEYhWBQ/FOPjWzydMS6E0uXY7s25PtAqBZNvVaFzdeF6+H6V6gAlmcaOPrGZpWHO9k9XRoWkP/xPAj3l9IS/30y0CjuPmfIIvucaAJ8HlofAReg7IxcCter0gD4GLg3bh5vyZ2gjuMUEMSWBRKf5fFcm/391H40uJKvL+EzwqfhPxY/Im9G7AE70R2FF4jdZm//r3i8u7LfTQJuJmMPQI18f46/yir9QP+G1dufAPsGr/crng9XA/g9UT9h4yX96YDR/np04EPQ7H4L+PFhBq+/rSL8L4U14SmrSf2V/NKMnarx9fzS7y/jM/GuxzSy59+DBm/PJYB9fOyf0LTi+E1WD4Dvs/j/qkK/IPQJcO87p9E9lFe908W+6hnLvso/jNwnL/tOpP9eW5O3Dzx43ND6e9zWKedwACgfxbDT3Hz1cf7DN1J7A/ZrBqV8X/MdsT73K0nc8NqGaFLV6HppYDlWa0fmXviw9tlOnCIn/6AWG9Lmfj5NOz9YZ9XYJ+u/L492fbGb8VnUa9e2Uw/Ha93ZFM28fEJrHsn/4NeFTgS7y+vk7PJ25FY93QLf1ucQtx1YH/bzcTrudiJ/wQXkBaXryveJZFleH8Nd/KnVwfuCuV7gVCPXGj6ZcAfofFn8P4Cjg41/em1gCl52Bbvxh8H+3of4V3OvBOvl3Ar3iWKxf60KqF8w8i6QdkUeC2L6cfiNUzn4P2VPBHvC6VkKE9rvJ7CrXh/nTcP7Z+BceXdBRyfxXJ6kLFReXvcUD20j+Iv2x2Kd8nlfeAgvC/ubXifyyNC+f5JqHc1roxr4sZLARdG64rXe7ISuCpu3T/Nqrwc9s9if99kuX8S3Ueh/fNNaP9cQdw9gf42yus+mkfmz2BrvM/fltC0bXg9ze/g9SqVDcXiv8Qn4F1Ofxiv1+oevPPI7WRsPE0N77O4MlZlM70n3h8lvcmhFyyL6Ubme33+hXes3wL084db/Gn/CpdJ7P6VjqHpxcnYq9La357P+cMKvHPObOJuK9Cw94ci/Uu3ZnYX3vXmj+Km9wAecs4188dvj5v1UefcZjOrhfcFe2Fo3kPxTuJ/410yuhLvr4kNwOXOuemhvAfhPfY90zn3S3j5zrkPssqH1w3exDm3ID5fXsv01+ckvG7MyXgNko/x7iP50Dk3IjRffN5OeJcvssobfkS9Jd6X1mIX94i6n/dw4E+Xy+PsWcz3XHh7J5rPzCZkkb0r3okV59zpOZR5FN62WuCcm5RDvi54DdSvcsqXU5n+Y/zfOee2m1lZYo/xLyT0GH+Cj/uH8+ZWZnjZt+RQ5kDgTefculzWM0/5EiyzNN5lzO+dcx+ZWT/gCLyGw1jn3B+hvC/iHcNl8b6YywFv4vW4mXOufz7KbELGn09YQjY/n5DXn1rw852VxzLDy/8zhzL74X3xz4ibXh+4zTl3uT9+TNwivnHO7TSzmniXth8JzVsRr8Ho8BotPfD+YFkLDHfObfTzVQF+dc7tJgFmVg6vl6mTc+7o+PVxzr2UQFkt8P6QiP+JjUWhPB3wLrv9GjdvQ7yerBdC04rj/VHaHO+YWo93LtyW1zpJ/hTpBktOzOxi59zTeytffF7/pPxPvBNhG+Ba59zbfuwb59xhieTzx6/Be1ontzK/9eOl8e6fqBv6wpvpnGsdKjNPefewEZRl3iwaF4bXnZ2hcZFII8TM5uB9QT+Bd7I1vKem+vh5Pwnl/co519FPX+7vhzfxTlbvOOdGZZPvKuCt+HwJlrkQr/fgTzMbC+zCu3zVzZ9+Zjb5duPdNJohXwGWud0vZ4W/HV91zm2O3xl5zZdgmfGNkPJ49zhlaIT4eec751qbWQm8L6wDnHN/mZnhXTJpnUiZ/ufyVLynzk7G+wt9G96lyauccx+Hlp2nvGZ2LV7P5V4rU2S/kmiXTFEZiLv/ZE/zxefF6+4t76cb4nUpXuuPz0k0X4JlZpn2x+fGjecpL4k9op6nvHgn4RfwusmP8f/f6KePSTSfn7cYXs/XZKCNPy27+03C6z6L2GWMcmS8STVP+RIsM6+P8ecpXwGWOcffpifgPT23Ge/afn+gQqL5Eixzvv9/CbwnPKI/Z5DVzdYL8C4LVca7XFnFn16GLG70zq1MEvj5hLzmLYgy/Wlp5O0R+TzlSzRvdgOhnwbYW3nj85HxSdC+cbFHs8mX0xOjFf11zLE8DQUzFNgv3aYCM5ufXQjvBrqE8iWYt5jzL9k451ab96N2r5lZAz9vovkSyfu7mZV1Xjdtu1Dd0/AuZZGPvH865/4CdpvZCud3Szvn0s0svsy85m2H99TXEGCQc26umaW7UC9Igvlwzv0N3Gdmr/r//0D2v/hczMwq4315mvP/ynfO7TKzP/ORL5G8C0I9cvPMrL1zbraZNcd7Qi7RfAVVpvO36SRgknk/PBh9Su5uvHsqEsmXSN5iZlYKr7FXFu9L9Ge83sAMP4CI1/D5Dq+hPAR41cxW4t14Oj6UL5EyS+BdtimN1xODc26txf34YoJ5C6LMV/B6G491zm0CMO9ydn8/dkKC+XLKe1E4r5kdRtYMr+c2NiGPeRMpE+/+kmV4PYmXmFlvvAbJb3j7Prt8Z+UxX3blSUHY1y2mfTng/QXVBu9plvDQkNCd73nNl2CZU/H/wg9NK4F3I9dfieZLsMw8P52V17wk9oh6nvP606NP4DxMDj1aec0XN88pxP1uRSi2mthjsivxf+QL78thbqL5Eiwzjbw9xp+nfAVY5pwctm3ZRPMlWOb1fr3W4D35MwXv5wy+JfQYbCj/Afi/eYP3iG9vQjdYJlImif18Qp7yFkSZ/rS8PiKfyKPaeS0zTz8NkEjeBMuM//xl9yToXs2noWCGfV6Bfbry3l9dR2UTeynRfAmWWZfQj07F5Tsy0XyJ5i2AbbnXG0FZxLNtXOQn3x6sa1niHv/ek3w55SUPj/Enkm9vl4n/dEoe1i9P+fKRN9dGSD72b57KJI8/n5BI3gIqM6+PyCfyqHZey0zkpwHylDfBMvP6JOhezaehYAbddCsish/zL0EOxntcOPqOqx/wHk0e5Zzbmki+BMvsjXdv1pIs6tXLOfdWaDxPeRMsM69Pgu7VfFIw1GARESmiCvppyKJUZiLLlvxRg0VEpIgys7XOufp7K19RLjORZUv+FOmnhERE9nf78mnI/a3MRJYte58aLCIi+7eawIl4P+MfZnjvxkk0X1EuM5Fly16mBouIyP7tXbwflJwbHzCzj/ORryiXmciyZS/TPSwiIiKS9Irt6wqIiIiI5EYNFhEREUl6arCIiIhI0lODRURERJKeGiwiIiKS9P4fp155NIgm46EAAAAASUVORK5CYII=;clipPath=inset(1.19% 14.33% 11.31% 4%);" vertex="1" parent="1">
          <mxGeometry x="90" y="280" width="270" height="162" as="geometry" />
        </mxCell>
        <mxCell id="okRBM69BKqi_v_l5vlfQ-3" value="" style="shape=cube;whiteSpace=wrap;html=1;boundedLbl=1;backgroundOutline=1;darkOpacity=0.05;darkOpacity2=0.1;size=30;direction=east;flipH=1;fillColor=#b0e3e6;strokeColor=#0e8088;rotation=-90;" vertex="1" parent="1">
          <mxGeometry x="540" y="218.5" width="60" height="285" as="geometry" />
        </mxCell>
        <mxCell id="okRBM69BKqi_v_l5vlfQ-4" value="" style="verticalLabelPosition=middle;verticalAlign=middle;html=1;shape=trapezoid;perimeter=trapezoidPerimeter;whiteSpace=wrap;size=0.25;arcSize=10;flipV=1;labelPosition=center;align=center;rotation=-90;fillColor=#dae8fc;strokeColor=#6c8ebf;" vertex="1" parent="1">
          <mxGeometry x="-150" y="294.5" width="210" height="133" as="geometry" />
        </mxCell>
        <mxCell id="okRBM69BKqi_v_l5vlfQ-5" value="" style="html=1;shadow=0;dashed=0;align=center;verticalAlign=middle;shape=mxgraph.arrows2.arrow;dy=0.55;dx=20.23;notch=0;fillColor=#f5f5f5;strokeColor=#666666;fontColor=#333333;" vertex="1" parent="1">
          <mxGeometry x="30" y="341.5" width="50" height="39" as="geometry" />
        </mxCell>
        <mxCell id="okRBM69BKqi_v_l5vlfQ-6" value="" style="shape=image;imageAspect=0;aspect=fixed;verticalLabelPosition=bottom;verticalAlign=top;image=data:image/png,iVBORw0KGgoAAAANSUhEUgAAAlAAAAIsCAYAAAA9Apf/AAAAOXRFWHRTb2Z0d2FyZQBNYXRwbG90bGliIHZlcnNpb24zLjUuMiwgaHR0cHM6Ly9tYXRwbG90bGliLm9yZy8qNh9FAAAACXBIWXMAAAsTAAALEwEAmpwYAAA+Q0lEQVR4nO3debhcVZX//88i000IEIYQAgkCEoaAmmAIowwyBQQC37YVELEZTNM4IA6I0oog3e2AokALXBllCDIJaWaEgMKPIRcShCRgmEkEEuYpQID1++NWurP3OfdW7bqnxrxfz8OTu06dU3ufql1Vi1Or9jZ3FwAAACq3QqM7AAAA0GpIoAAAABKRQAEAACQigQIAAEhEAgUAAJCIBAoAACBR/zq3x5wJAACgVVhPN9Q7gdLg8V+vd5N1s3jmGXr3g0b3ojY6+qttz03i/Fod59e62vncJM6v1XX0kiXxFR4AAEAiEigAAIBEJFAAAACJSKAAAAASkUABAAAkIoECAABIRAIFAACQiAQKAAAgEQkUAABAoopnIjezTSRNlrROadMCSdPcfW4tOgYAANCsKroCZWbfl3SZuteEub/0n0maambHlTl2ipl1mVlXZ2dnX/sLAADQcOZefn1fM/u7pM3cfUm0faCk2e4+psL2nLXwWtPysN4R59e6OL/W1c7nJnF+ra6jf8+LCVdaA/WRpLVzto8s3QYAALDcqLQG6luSbjOzeZKeK21bV9KGktr3khIAAECOihIod7/JzDaSNFFhEfkMd/+wVp0DAABoRhX/Cs/dP5J0bw37AgAA0BKYBwoAACARCRQAAEAiEigAAIBEJFAAAACJSKAAAAASkUABAAAkIoECAABIVNFaeAWqa2MAAAB90ONaeBVPpFmUNl90sG3Pr53PTeL8Wh3n17ra+dyk7vMbPL59VzxbPPMMLV7S6F7UzuABPd/GV3gAAACJSKAAAAASkUABAAAkIoECAABIRAIFAACQiAQKAAAgEQkUAABAIhIoAACARCRQAAAAiQpJoMzs0CLuBwAAoBUUdQXqxJ5uMLMpZtZlZl2dnZ0FNQcAANA4Fa+FZ2Z/6+kmSSN6Os7dOyUtzZy8ndc8AgAAy4eUxYRHSNpD0qvRdpP0/xXWIwAAgCaXkkBdJ2mou8+KbzCzO4rqEAAAQLOrOIFy98N7ue2gYroDAADQ/JjGAAAAIBEJFAAAQCISKAAAgEQkUAAAAIlIoAAAABKRQAEAACQigQIAAEhEAgUAAJDI3L2e7dW1MQAAgD6wnm5IWcqlEO28mHBH//Y9v3Y+N4nza3WcX+tq53OTOL9W19FLlsRXeAAAAIlIoAAAABKRQAEAACQigQIAAEhEAgUAAJCIBAoAACARCRQAAEAiEigAAIBESQmUmW1iZruY2dBo+6RiuwUAANC8Kk6gzOybkq6V9A1Jj5jZ5GVu/s+iOwYAANCsUq5AfVXSp919P0k7SfqRmR1duq3HtWLMbIqZdZlZV2dnZ9UdBQAAaBYpa+Gt4O5vSZK7P21mO0m60sw+pl4SKHfvlLQ0c/J2XjMHAAAsH1KuQL1oZuOWBqVkam9Ja0j6RMH9AgAAaFopCdQhkl5YdoO7f+Duh0jaodBeAQAANLGKv8Jz9/m93HZ3Md0BAABofswDBQAAkIgECgAAIBEJFAAAQCISKAAAgEQkUAAAAIlIoAAAABKRQAEAACQyd69ne3VtDAAAoA96XKouZS28QrTzWngd/dv3/Nr53CTOr9Vxfq2rnc9N4vxaXUcvWRJf4QEAACQigQIAAEhEAgUAAJCIBAoAACARCRQAAEAiEigAAIBEJFAAAACJSKAAAAASkUABAAAkSpqJ3MwmSnJ3n2FmYyVNkvSou99Qk94BAAA0oYoTKDM7QdKekvqb2a2StpI0XdJxZjbe3f+jRn0EAABoKilf4X1e0naSdpD0NUn7uftPJe0h6Ys9HWRmU8ysy8y6Ojs7+9RZAACAZpDyFd4H7v6hpHfM7Al3f0OS3H2xmX3U00Hu3ilpaebk7bzoIAAAWD6kXIF638yGlP7+9NKNZraKpB4TKAAAgHaTcgVqB3d/T5LcfdmEaYCkrxTaKwAAgCZWcQK1NHnK2f6SpJcK6xEAAECTYx4oAACARCRQAAAAiUigAAAAEpFAAQAAJCKBAgAASEQCBQAAkIgECgAAIJG5ez3bq2tjAAAAfWA93ZAyE3kh2nktvI7+7Xt+7XxuEufX6ji/1tXO5yZxfq2uo5csia/wAAAAEpFAAQAAJCKBAgAASEQCBQAAkIgECgAAIBEJFAAAQCISKAAAgEQkUAAAAIlIoAAAABJVnUCZ2R+K7AgAAECrqGgpFzObFm+StLOZDZMkd9+3l2OnSJoiSWeffbYOOWxKdT0FAABoEpWuhTdK0hxJ56h7QWCTNEHSr8od6O6dkjqXhu28Zg4AAFg+VPoV3gRJD0g6XtLr7n6HpMXufqe731mrzgEAADSjiq5AuftHkk41sytK/75Y6bEAAADtJikJcvf5kv7ZzD4n6Y3adAkAAKC5VXUVyd2vl3R9wX0BAABoCcwDBQAAkIgECgAAIBEJFAAAQCISKAAAgEQkUAAAAIlIoAAAABKRQAEAACQyd69ne3VtDAAAoA+spxvqvhxLOy8m3NG/fc+vo780ePzXG92Nmlk884y2fe6k9h6bEufXytr53CTOr9V19JIl8RUeAABAIhIoAACARCRQAAAAiUigAAAAEpFAAQAAJCKBAgAASEQCBQAAkIgECgAAIFHVE2ma2faSJkp6xN1vKa5LAAAAza3iK1Bmdv8yf39V0hmSVpJ0gpkdV4O+AQAANKWUr/AGLPP3FEm7ufuJknaX9KWeDjKzKWbWZWZdnZ2dVXYTAACgeaR8hbeCma2q7qTL3H2RJLn722bW40o47t4paWnm5O28Zg4AAFg+pCRQq0h6QN0rE7uZjXT3581sqHpZrRgAAKDdVJxAuft6Pdz0kaT9C+kNAABAC6j6V3hLufs7kp4qoC8AAAAtgXmgAAAAEpFAAQAAJCKBAgAASEQCBQAAkIgECgAAIBEJFAAAQCISKAAAgETm7vVsr66NAQAA9EGPK630eSLNVO28Fl5H//Y9v3Y+N2n5OL/B47/e6G7UzOKZZ7T989eu59fO5yZxfq2uo5csia/wAAAAEpFAAQAAJCKBAgAASEQCBQAAkIgECgAAIBEJFAAAQCISKAAAgEQkUAAAAIlIoAAAABJVnECZ2VZmtnLp78FmdqKZ/Y+Z/dzMVqldFwEAAJpLyhWo8yS9U/r7t5JWkfTz0rbzC+4XAABA00pJoFZw96Ur3kxw92+5+13ufqKkDXo6yMymmFmXmXV1dnb2qbMAAADNIGUx4UfM7FB3P1/SQ2Y2wd27zGwjSUt6OsjdOyUtzZy8nRcdBAAAy4eUK1BHSNrRzJ6QNFbSPWb2pKTfl24DAABYLlR8BcrdX5f0L6VC8vVLx8539xdr1TkAAIBmlPIVniTJ3d+Q9FAN+gIAANASmAcKAAAgEQkUAABAIhIoAACARCRQAAAAiUigAAAAEpFAAQAAJCKBAgAASGTuXs/26toYAABAH1hPNyRPpNlX7bwWXkf/9j2/dj43ifNrdcvD+Q3e6nuN7kZNLL7vlxo8/uuN7kbNLJ55RtuPzXY/v57wFR4AAEAiEigAAIBEJFAAAACJSKAAAAASkUABAAAkIoECAABIRAIFAACQiAQKAAAgEQkUAABAoooTKDP7ppmNrmVnAAAAWkHKFaifSrrPzP5qZkeZ2fBKDjKzKWbWZWZdnZ2d1fUSAACgiaSshfekpE9L2lXSFyWdaGYPSJoq6Wp3fzPvIHfvlLQ0c/J2XjMHAAAsH1KuQLm7f+Tut7j74ZLWlvQ7SZPUnVwBAAAsF1KuQNmygbsvkTRN0jQzG1JorwAAAJpYyhWoL/Z0g7u/U0BfAAAAWkLFCZS7/72WHQEAAGgVzAMFAACQiAQKAAAgEQkUAABAIhIoAACARCRQAAAAiUigAAAAEpFAAQAAJDJ3r2d7dW0MAACgD6ynG1KWcilEOy8m3NG/fc+vnc9N6j6/weO/3uhu1MzimWfw/LWwxTPP0OIlje5FbQwe0P7vLZxf6+roJUviKzwAAIBEJFAAAACJSKAAAAASkUABAAAkIoECAABIRAIFAACQiAQKAAAgEQkUAABAooom0jSzgZIOkPQPd/+zmR0kaVtJcyV1unubTvEGAACQVelM5OeX9h1iZl+RNFTS1ZJ2kTRR0ldq0z0AAIDmU2kC9Ql3/6SZ9Ze0QNLa7v6hmV0s6aHeDjSzKZKmSNLZZ5+tQw6b0qcOAwAANFqlCdQKpa/xVpQ0RNIqkl6RNEjSgN4OdPdOSZ1Lw3ZeMwcAACwfKk2gzpX0qKR+ko6XdIWZPSlpa0mX1ahvAAAATamiBMrdTzWzP5b+/oeZ/UHSrpJ+7+7317KDAAAAzabSK1By938s8/drkq6sRYcAAACaHfNAAQAAJCKBAgAASEQCBQAAkIgECgAAIBEJFAAAQCISKAAAgEQkUAAAAIlIoAAAABKZu9ezvbo2BgAA0AfW0w0Vz0RelHZeTLijvzR4/Ncb3Y2aWDzzjLZ/7ji/1sX5ta52Pjdp+Ti/wROOaXQ3amZx16k93sZXeAAAAIlIoAAAABKRQAEAACQigQIAAEhEAgUAAJCIBAoAACARCRQAAEAiEigAAIBEFU+kaWYbSPp/kkZL+lDS3yVd6u5v1KhvAAAATamiK1Bm9k1JZ0nqkLSlpEHqTqTuNbOdatU5AACAZlTpV3hflbSnu58saVdJm7n78ZImSep5nnNJZjbFzLrMrKuzs7NvvQUAAGgCKWvh9Vf3V3eDJA2VJHd/1swG9HaQu3dKWpo5eTuvCQQAAJYPlSZQ50iaYWb3SfqMpJ9LkpkNl/RKjfoGAADQlCpKoNz9t2b2Z0mbSvqVuz9a2r5I0g417B8AAEDTqfgrPHefLWl2DfsCAADQEpgHCgAAIBEJFAAAQCISKAAAgEQkUAAAAIlIoAAAABKRQAEAACQigQIAAEhk7t7oPtSMmU0pLSXTltr5/Nr53CTOr9Vxfq2rnc9N4vzqqd2vQE1pdAdqrJ3Pr53PTeL8Wh3n17ra+dwkzq9u2j2BAgAAKBwJFAAAQKJ2T6Ca4nvSGmrn82vnc5M4v1bH+bWudj43ifOrm7YuIgcAAKiFdr8CBQAAULi2TKDMbJKZPWZmj5vZcY3uT5HM7DwzW2hmjzS6L7VgZqPNbLqZzTGz2WZ2dKP7VCQz6zCz+83sodL5ndjoPhXNzPqZ2Uwzu67RfSmamT1tZg+b2Swz62p0f4pmZsPM7Eoze9TM5prZNo3uU1HMbOPS87b0vzfM7FuN7leRzOyY0vvKI2Y21cw6Gt2nopjZ0aXzmt0sz1vbfYVnZv0k/V3SbpLmS5oh6UB3n9PQjhXEzHaQ9JakP7j75o3uT9HMbKSkke7+oJmtJOkBSfu10fNnklZ097fMbICkuyQd7e73NrhrhTGzb0uaIGlld9+70f0pkpk9LWmCu7/U6L7UgpldKOmv7n6OmQ2UNMTdX2twtwpX+pxYIGkrd3+m0f0pgpmto+73k7HuvtjMLpd0g7tf0Nie9Z2ZbS7pMkkTJb0v6SZJR7r7443sVztegZoo6XF3f9Ld31f3gz65wX0qjLv/RdIrje5Hrbj78+7+YOnvNyXNlbROY3tVHO/2VikcUPqvbf4vxsxGSfqcpHMa3RekMbNVJO0g6VxJcvf32zF5KtlF0hPtkjwto7+kwWbWX9IQSf9ocH+Ksqmk+9z9HXf/QNKdkv5fg/vUlgnUOpKeWyaerzb6AF6emNl6ksZLuq/BXSlU6SuuWZIWSrrV3dvp/H4j6VhJHzW4H7Xikm4xswfMrGkm9CvI+pIWSTq/9BXsOWa2YqM7VSMHSJra6E4Uyd0XSDpF0rOSnpf0urvf0theFeYRSZ8xs9XNbIikvSSNbnCf2jKBQhsws6GSrpL0LXd/o9H9KZK7f+ju4ySNkjSxdHm65ZnZ3pIWuvsDje5LDW3v7ltI2lPS10pfqbeL/pK2kHSmu4+X9LaktqohlaTSV5P7Srqi0X0pkpmtqu5vW9aXtLakFc3s4Mb2qhjuPlfSzyXdou6v72ZJ+rCRfZLaM4FaoDAzHVXahhZRqg26StIl7n51o/tTK6WvR6ZLmtTgrhRlO0n7luqELpP0WTO7uLFdKlbp//Ll7gsl/UndJQPtYr6k+ctcEb1S3QlVu9lT0oPu/mKjO1KwXSU95e6L3H2JpKslbdvgPhXG3c9190+7+w6SXlV3rXNDtWMCNUPSGDNbv/R/GgdImtbgPqFCpSLrcyXNdfdfN7o/RTOz4WY2rPT3YHX/2OHRhnaqIO7+A3cf5e7rqft1d7u7t8X/AUuSma1Y+mGDSl9t7a7urxbagru/IOk5M9u4tGkXSW3x443IgWqzr+9KnpW0tZkNKb2P7qLuGtK2YGZrlv5dV931T5c2tkfdl2zbirt/YGZfl3SzpH6SznP32Q3uVmHMbKqknSStYWbzJZ3g7uc2tleF2k7SlyU9XKoTkqQfuvsNjetSoUZKurD0K6AVJF3u7m33c/82NULSn7o/m9Rf0qXuflNju1S4b0i6pPQ/n09KOrTB/SlUKfHdTdK/NrovRXP3+8zsSkkPSvpA0kw10azdBbjKzFaXtETS15rhBw5tN40BAABArbXjV3gAAAA1RQIFAACQiAQKAAAgEQkUAABAIhIoAACARCRQAAAAiUigAAAAEpFAAQAAJCKBAgAASEQCBQAAkIgECgAAIBEJFAAAQCISKAAAgEQkUAAAAIlIoAAAABKRQAEAACQigQIAAEhEAgUAAJCIBAoAACARCRQAAEAiEigAAIBEJFAAAACJSKAAAAASkUABAAAkIoECAABIRAIFAACQiAQKAAAgEQkUAABAIhIoAACARCRQAAAAiUigAAAAEpFAAQAAJCKBAgAASEQCBQAAkIgECgAAIBEJFAAAQCISKAAAgEQkUAAAAIlIoAAAABKRQAEAACQigQIAAEhEAgUAAJCIBAoAACARCRQAAEAiEigAAIBEJFAAAACJSKAAAAASkUABAAAkIoECAABIRAIFAACQiAQKAAAgUZ8SKDObZGaPmdnjZnZcUZ0CAABoZubu1R1o1k/S3yXtJmm+pBmSDnT3OcV1DwAAoPn078OxEyU97u5PSpKZXSZpsqQeEygzqy5bAwAAqL+X3H143g19+QpvHUnPLRPPL20DAABoB8/0dENfrkBVxMymSJpS63YAAADqpS8J1AJJo5eJR5W2Bdy9U1KnxFd4AACgPfTlK7wZksaY2fpmNlDSAZKmFdMtAACA5lX1FSh3/8DMvi7pZkn9JJ3n7rML6xkAAECTqnoag6oa4ys8AADQOh5w9wl5NzATOQAAQCISKAAAgEQkUAAAAIlIoAAAABKRQAEAACQigQIAAEhEAgUAAJCIBAoAACARCRQAAEAiEigAAIBEJFAAAACJSKAAAAASkUABAAAkIoECAABIRAIFAACQiAQKAAAgEQkUAABAIhIoAACARCRQAAAAiUigAAAAEpFAAQAAJCKBAgAASEQCBQAAkIgECgAAIBEJFAAAQCISKAAAgEQkUAAAAIlIoAAAABKRQAEAACQigQIAAEhEAgUAAJCof6M7UM5qq60WxIccckgh9/vWW28F8R//+MfMPm+++WYhbZXTr1+/IJ4wYUIQb7PNNoW0c8899wRxV1dXZp8PP/ywkLaW1dHRkdm2++67B/EGG2xQeLtS9jm8+OKLM/u89957NWk7ttlmmwXxbrvtVvaYW2+9NYhnz55daJ/6oty4lYoZu/G4lbJjtxbjNs/w4cMz2/bff/8gHjJkSBA/88wzmWPi5zV+PyrKjjvuGMTjx4+vSTu1MnPmzCC+9957gzh+H5Gkj3/84zXtU5HuuOOOzLZZs2Yl38/KK68cxIcddlhmn/i98LLLLgvit99+O7ndSsTv/3nPWRHv/9dcc01m29NPP93n++0NV6AAAAASkUABAAAkKptAmdl5ZrbQzB5ZZttqZnarmc0r/btqbbsJAADQPCq5AnWBpEnRtuMk3ebuYyTdVooBAACWC2WLyN39L2a2XrR5sqSdSn9fKOkOSd9PbdzMMtviAswxY8YE8amnnpraTK4XXnghiOPiREmaN29eEBdRbJx3znGh/OTJk4P4Bz/4QZ/blaT/+q//CuInn3wys89LL70UxO7e53ZXXHHFzLYjjjgiiPfZZ58+t5PnueeeC+Irr7wys08tntd4HEvSDjvsEMSVjOWjjjoqiPOKIt95550gLuI5yxOfY7lxKxUzduNxK2XHbi3GrSQNHDgwiOP3I0k6+eSTgzguNM8rFJ47d24QP/7440H8wQcfpHSzR3GB+9FHH13I/dbLb3/72yB+6KGHgjivWHq//farZZcKdcwxx2S2VVNEvu666wZx3ntL/F544403BnFRReTxj0vWWmutID7yyCMzx+y55559bnfBggWZba+88koQx4X0fX2fqLYGaoS7P1/6+wVJI/rUCwAAgBbS52kM3N3NrMc0zsymSJrS13YAAACaRbVXoF40s5GSVPp3YU87ununu09w9+wkMQAAAC2o2itQ0yR9RdLPSv9eW82dDBgwILPt3/7t34J40qS4fr0Yw4YNC+Jf/epXmX1OP/30IL7hhhuC+KOPPkpud/DgwZlt55xzThBvtNFGyfdbibgeIp7YUZK+/OUvB/Ebb7zR53bjOhJJGjRoUJ/vt5msssoqQfzNb34zs8+2226bfL9xXVHeRI6nnXZaEL/22mvJ7VRipZVWCuJGjVspO3YPPPDAII7rwioR125I2YkoDz744Mw+eTV+y8qbJDCufYlrVh599NFe7xNY1gknnNDoLvyv0aNHB/F///d/B3GtJnPNqyeLJ+2MawCreZ9YViXTGEyVdI+kjc1svpkdru7EaTczmydp11IMAACwXKjkV3gH9nDTLgX3BQAAoCUwEzkAAECihi4mnLfIbFwnsssu4YWu999/P3NMNd9jDh06NIjzFjicPn16EN98881BXE0NVP/+2Yd833337fV+8xYarWSemLituEZlk002yRyzxhprBHERNVAjR47MbIvnBokXgy1qIefXX389iIuaHyiul9lyyy2DOG9OpDXXXDOIK6lVimt98mqg4sV2b7/99iAuaqHduG6t3LiVsmO3iHErZcdu3usq1aqrZhdUiM8xnstLkt59990gjt+j8uoe44Wkn3rqqSDOm8enmvnKFi9eHMS1qo+rRPwcxe/BS5YsyRwTP7bx6zfvvbFR55j3eRZvi5/Dap7TrbfeOrMt7/OrUeKFjffaa68gzns/quZ9On4/yntc4nqsuG81r4ECAABAiAQKAAAgEQkUAABAIhIoAACARA0tIs+bgK7cpHR5RYPPPvtsctsbbrhhEMcFjVJ2sdS4cDiv6LEIcZHdiy++mNmnkiLreOLDeMHJFVbI5s9xwXfegsOpNt1008y2sWPHBnH8WOYtmluN+LGrpvA/TzwJ7EEHHRTEn/jEJzLHxIWSlZzjqFGjyt5v3PZf//rXIC6qiLycvHbix7+IcSvlj92+ymsnXqw2b/zEz2NcKJ/33hI/r8cff3wQx5OUStUVHL/88stBXNTrqhrx8xo/LnkFva+++moQx4//okWLMsfU6xzjxbXjH4lI2ffT+Ec51fxIJ29B6PixbWZ5n5vxQseV/NgkfrzjHyZJ2ffp+DP9hRdeKNtOb7gCBQAAkIgECgAAIBEJFAAAQKKG1kDlTeQYb4snpbv11lszx1x7bfpaxocffngQ502QF0/iecoppwRxPMlbteJJw+bPnx/E559/fuaYSmqT4kVM43Neb731MscccsghQXz33XeXbaecvEWj40n14u+if/GLX/S5XSlbV1FNHUmeuP4hniwx75xnz54dxGeffXbZdv71X/81iOPFbfPajvtWlLgeqNy4lbJjt4hxK2XH7le/+tUgzlscvJy8uqohQ4YE8TPPPJPZJ14sNa5123zzzTPHHHnkkUEc12YU9RzGk6ouWLCgkPutxrhx44L42GOPDeJ58+Zljonff+LX79VXX505ZsaMGVX2ME38HhZPuipJn//854P4gQceCOKurq6y7eyzzz5BPGHChMw+lYyXoiYRThXXRs6ZMyezz1lnnRXEebXOsW222SaIv/zlL2f2iWvD4s/0vL6k4AoUAABAIhIoAACARCRQAAAAiUigAAAAEjW0iDxv4rp4WzyR2g033JA5ZurUqcltx4WqW221VWafLbbYIojjgtJq5K0sH08O98QTTwTxVVddlTnm0UcfLdtWXJC/0047BXHe41+LVb0rKV6MJ1is5jmtp2HDhgXxqquuGsR5PzC44447griSc9x4442DOG+cxm3HfVu8eHHZdiqx//77B3G5cStlx24R41bKjt1//ud/DuJqisjjx1rKFsDm9f/yyy8P4ldeeSWI856zvffeO4jj5zDvfSJv0shyHnzwwV7jWuno6MhsW3311Xs9Ju9HCI888kgQxz8quuuuu6roXTHi84mLmvM89thjvcZ54vGf9+OfStTqxyWx+HUUT4qZNwYvu+yyIK5kwt2FCxcG8Z577pnZJ54wO/5M7yuuQAEAACQigQIAAEhEAgUAAJCooTVQlYgXw7zpppsKud/rr78+iL/2ta9l9slbBLSvTj755My2uJYk/t4/b/K+SsTHxfebNykjKjNx4sRe4+effz5zzHnnnZfcTnxMPNFpJX2pZqLZPPFkj+XGrVTd2C03bqXs2I37Vo0f//jHmW1vv/12EOdN3FhuQdi8yfr+8pe/BHG84HZeX/bYY49e22kma6+9dmbbMccc04Ce1E78nMU1gkVZeeWVgzhe1L7Z/PSnPw3iuB40b3LmvIWky4knIc2roYtroIrGFSgAAIBEJFAAAACJSKAAAAASNbQGqpJ5KZYsWRLE8dwP1YrvJ26nVvLmmonnSYrnwKh2Hp/4uPh+a7W4ZPydfd7cUnFf8ua6ambl5l7Kq4F69tlnk9uJj8mbX6rcnFRFiRdILjduperGbnzMLbfcktknnp+pXB1SJfLmXorndIoXvZay89zE8h6XeH67+LHM60sr+eIXv5jZFs+9Fz9nM2fOzBxT1OLftRAvXrvWWmtl9onHy3333ZfcTrwgdN5Cu/F7brzwt1S/xYTjz7j4NRTHUvb1XIl40e6i5rtLwRUoAACARCRQAAAAiUigAAAAEpFAAQAAJKp7EfkKK/xfzjZ48OB6N9+jSgra40K9drTs8yNlF1CuZMKzeFLDgw46KLNPPOnZJZdcEsRxYXSevALTuMi6VoWT8SSS9SrQzBO3HfetGnkLZ8djo15uvPHGirb1VTWFrLXSTH2pxpQpU8ruE//Q4rbbbsvs04jC4ErF55j3HvD3v/89iG+99dbkduJFx/MWIY8XGM4rIq/XYsLNbODAgb3GUnbB6t5wBQoAACARCRQAAEAiEigAAIBEda2B6t+/f1Afc8QRR9Sz+T775S9/GcSttLhnpdZYY40gjp+j0047rZB2Vl999SA+9dRTgzhvwshYvCC0JF100UVBXKuJ+OJFZuO4nmrRl7zXZjw22k3e5Kd5tWD1kNeXVhdPOHrPPfcE8WOPPVbP7hQu73V33XXXBXHepKqon+233z6It9tuu8w+06dPr/j+uAIFAACQiAQKAAAgUdkEysxGm9l0M5tjZrPN7OjS9tXM7FYzm1f6tzYLcAEAADSZSmqgPpD0HXd/0MxWkvSAmd0q6V8k3ebuPzOz4yQdJ+n7vd3RCiusENQUbLHFFpl94nk/7r777gq6mC6usXnooYcy+4wYMSKI8xbFbTdxzcf48eNr0k48B9ikSZOS76N//+zwjRcojecLKqoGYcGCBb3GK620UuaYcePGBfGsWbPKthMfk3e/5fpSjbznPR4b8Vxec+fO7XO7jXTHHXdktu23335BvOmmm2b2ufnmm4M4rrsbPnx45ph11103iOM5tvL60szi9/K82rF4frLnnnsuiF9++eXiO1agcu//efMHxfNANfPiyMuD+HUXx6nKXoFy9+fd/cHS329KmitpHUmTJV1Y2u1CSfv1qScAAAAtIqkGyszWkzRe0n2SRrj70p+KvCBpRE/HAQAAtJOKpzEws6GSrpL0LXd/Y9lp4d3dzSx3LQszmyJpiiT169evb70FAABoAhVdgTKzAepOni5x96tLm180s5Gl20dKWph3rLt3uvsEd59AAgUAANpB2StQ1n2p6VxJc93918vcNE3SVyT9rPTvtUV0KC4kjCevLMprr70WxBdffHFmn3iSrbyFB9E4u+22W2bbZz7zmSDeaqutgrioyfpmz57dazx58uTMMYcffngQf+Mb3yjbTnzMyJEjM/tce2340ov7Uitx0fif/vSnurRbK+ecc05m25e+9KUg3n///TP7nHfeeUG8aNGiIB47dmzmmHicxj+IyOtLM4vHad6kq/FEmrFGLshdiWo+i5r9nNA3lXyFt52kL0t62Mxmlbb9UN2J0+VmdrikZyR9oSY9BAAAaDJlEyh3v0uS9XDzLsV2BwAAoPkxEzkAAECiui4mXIl4srW33nqrLu3EE3hK9fv+Oi6uj+t2Nt5448wxldTyxMfF91urov641iGeMK9acQ3asgtTL7XKKqsE8VFHHRXE3/9+dq7XShYujsXjZdq0aUG86667Zo7ZaaedgjheQDlPfEzegqVx23ljuRbi53nQoEGZfQ499NAg3mijjQpp+/TTTw/iJ598ss/3+cQTT2S23XbbbUH8qU99KrPPySefHMTvvPNOEOdN1rfmmmsG8QUXXBDECxfm/ianacUTZ8YTg0rZSSVvuOGGmvapaCuvvHIQf/jhh0F81113ZY555JFHatqnFI2qx4rHxl577ZXZJ17At5IJj3feeecg3nDDDZP7tuxsAtXgChQAAEAiEigAAIBEJFAAAACJSKAAAAASNV0ReV+LuppdXvH3euutF8Tjxo0L4rhYTpIGDx5ctq2tt946iNdaa60gjotdJWmllVYqe7/lxCuO5xVXVmPYsGFBvOWWW2b2WX311YP4C18Ipyc7++yzM8fMmTMnuS/xjxCefvrpIM5bmT2eULGSgup4gsVXXnkls0/cdty3Wolfq6NHj87sc8ghhwRxPCar9dBDDwXxM888E8RxgW8l8gr04/vdZZfszC1xoXxcrJtXUB3/gCMeg0uWLOm9sw0W/4Aj7wcdsfjHJPfee2+hfSpSXuF//COWeIzFY1Iq5scNRanXZ2v8GRf/mCnvNTRhwoQgfvXVV8u2s/feewdx3kSt8Q+EOjo6grivhfVcgQIAAEhEAgUAAJCIBAoAACBR09VAtbt///d/z2zbY489gnjVVVcN4u9+97uZYyqZaCyuZ7r++uuDOG8CyYkTJ5a933LihZp/8pOf9Pk+JWmDDTYI4h/96EeZfeIam7g248ADD8wck3c/5QwYMCCI40Vm4wk9pezj/frrr5dtJ76fvPuN245rS+KatKLE9Vk77rhjZp/NNtusJm3/8Ic/DOIrrrgiiPPqmcpZZ511MtsqqbOI69LiGrS8Rcjjer54wte8xYQrqQupl+23377XuNXFiyNL+QskIyt+P7388suDOO91dtpppwVxuYWnpexktPGEtpL0ve99L4jXX3/9svebgitQAAAAiUigAAAAEpFAAQAAJGq6GqhGLXhYL48++mhmW1zbENdAffzjH6+qrXguovnz5wfxG2+8UdX9lhPPYRMvIlqtuLbqoosuyuwTzwMVz7W0++67Z46ZOnVqEFcyL9Qmm2wSxDvssEMQxzVSUnZh0WuuuaZsO/vtt18Qjx8/PrNP3Hbct7z5aYoQz5UzadKkzD7xXDmVLJIb1wzFi7hK0pgxY4I4nm/qzDPPLNtOLJ7PSZJGjBgRxC+88EJmnz/84Q9BHNdfxbV7UrZuLZ4L7uCDD84cEy+g3Ejx6yyuNcybr6yS8d4o8RxJH/vYxzL7xOMyXnz6nnvuKb5jBarXZ+vs2bOD+K233grioUOHZo7ZfPPNk9uJ5zGcN29eZp9yC8WzmDAAAECdkUABAAAkIoECAABIRAIFAACQqOmKyNt9MeG8hV6feuqpIM4rmq1GXCQeF6u3WsF+XIB81llnZfaJJ9KMC/DzJgqNFyWOi8jzFoPddtttg/hTn/pUEOcV6N99991BfNJJJ2X2iQ0fPjyI835QELcd9+3hhx/OHFPEgsNxgX7eAqzxwqKVTAYZ/4giXoxUyi4KeuyxxwZxJUXk8evs29/+dmafuAj18ccfz+xzyimnBPGiRYuCOG+C0XjMxUXxeZPnnnvuuUGctxh4LeSN/xVXXLHXY1588cXMts7OzsL6VLS4QHzQoEFlj4l/HHPjjTcW2qei1euzNX7NPP/880Gc96OKasSvs7hYvRIsJgwAAFBnJFAAAACJSKAAAAASNV0NVLvLW9g1rtc47rjjCmkrruWZMWNGEP/TP/1TIe00kzPOOCOIP/vZzwbx6NGjk+8zbxHRI444IojjiQPjmhxJmjlzZnLbcd3Lgw8+mNnnF7/4Ra99u+qqqzLHVDKhZTlx/cA//vGPzD5nn312EM+dO7fs/W666aZBnFcPVMSioL/85S+DOG8B02nTpgVxXt1duQlp8yZmjeut/vM//zOI48lQpezzGi/AWit54/+www6rS9v1EtcNbrfddg3qSeuLa5OuvPLKIP7CF75QSDs333xzED/99NOF3G8KrkABAAAkIoECAABIRAIFAACQqOlqoAYPHhzE8XfRV1xxRSHtxPPIfPKTn8zsE88NUoR4cVVJ+vOf/xzEefUP1YjnKYnPOa+2odV1dXUFcTVzg8SGDBmS2bbFFlsE8XPPPRfE8ffzUn6NUDmzZs0K4rzapRNPPLHXvuX1vwjxXFJ5i3nedtttQVzJwtLx4zR58uTMPnmLvaaKF5bOmxsrnsdq+vTpye3ENSFSdnwcffTRQRw/h1L+QtL1kDd+4r4sXrw4iOM5z5pdPIdZXq3km2++GcTNvnhwo8SLacdjvajP1TvvvDOI43npJGmllVYqpK2ecAUKAAAgEQkUAABAIhIoAACARCRQAAAAiZquiHy11VYL4u9973tBXFQR+bBhw4L44IMPzuxTbsHMosQFyHFRcLXiiQHjyfvGjh1bSDtYPsU/iMibKPSJJ55Ivt/4mLz73XnnnZPvF7Xz8ssvB3E8SWk7iH/c8Otf/7pBPWlu8Y8x4mL7vMmAq/H+++8H8cUXX5zZZ+TIkYW01ROuQAEAACQigQIAAEhUNoEysw4zu9/MHjKz2WZ2Ymn7+mZ2n5k9bmZ/NLPiJ00CAABoQpXUQL0n6bPu/paZDZB0l5ndKOnbkk5198vM7CxJh0s6s7c7+uCDD4JFVy+99NLMPgcddFAQDx06tIIuplthhTB3jCfwlCQzC+KTTjqpJn2Ja0niCduKMmjQoCDu3z/79MeL4k6dOjW5ne985ztB/O6772b2uemmm4K4mlqZPPvvv38Qr7766mWPiZ/nasQL69ZTLdrOe9733XffII5fm0uWLMkckzdxbDnxMXn3i/rZc889M9vi+pMHHnggiPMmD20WebWtEydODOJ33nkns088iWo8YWSza9R7VDxW4rgoec9rv379gvj+++8P4hkzZvSpzbJXoLzb0umcB5T+c0mflbR0meULJe3Xp54AAAC0iIpqoMysn5nNkrRQ0q2SnpD0mrsv/ZnXfEnr1KSHAAAATaaiBMrdP3T3cZJGSZooqeLF2sxsipl1mVlXI7/mAAAAKErSr/Dc/TVJ0yVtI2mYmS0tohklaUEPx3S6+wR3n1BErQkAAECjlS0iN7Phkpa4+2tmNljSbpJ+ru5E6vOSLpP0FUnXlruvjz76SG+88cb/xrfccktmn7iIvF4qSe7OP//8Prez4YYbZrbFxdzxpHT1LMhc9vmR8p+jcg4//PAgfu211zL7zJkzJ4iLKiLffffdgzieMDUuku9pW6pG/s9BLdrOe97jsVGrH3igueyzzz6ZbXEhcDw5Yt4PR5rFkCFDMtsqKSK/8847a9aneqjXe1Q8QXP8o5B4QlKpdj+cisWfO3GcqpJf4Y2UdKGZ9VP3FavL3f06M5sj6TIzO1nSTEnn9qknAAAALaJsAuXuf5M0Pmf7k+quhwIAAFiuMBM5AABAoqZbTLjdHX/88Zlt8WSPl19+eRDnLZLYzD72sY8F8UorrZTZJ68OoQhrrbVWEMf1ZXfddVfmmLxtALptvfXWmW3xQuXz5s0L4vfee6+mfeqLjo6OzLZNNgl/WJ5Xtzlr1qwa9ai9nHLKKUEc1zflLcJ833331bRPtcIVKAAAgEQkUAAAAIlIoAAAABI1tAaqknkp4vqZCRMmZPbp6upKbnvLLbcM4rzFhGth/PjMDxq19tprB3E8T0benDwLFy4s29aaa64ZxOutt14QxwsqFyWub/roo48y+8Tzrtx+++1BvHjx4swxca1YfB+StP766wdxfI7VzAMVz38kZZ+TT3/600G88847Z4655JJLem2nEnn3Gz/ecd/y+l+E+LGNx5eUHYNFjNu8tqsRz+v2ox/9KLPPmDFjgniddbIrVi1YkDuHcK8233zzIB4xYkQQVzLmauXQQw8N4lVXXTWzT/yaiRfWzXvNN4sjjjgisy2e0yzvPaFWr6N6qddKIHHNXDw24gV9pWx9WSU1dPGcisOHD6+wh8XhChQAAEAiEigAAIBEJFAAAACJSKAAAAASNbSIfMmSJZlt8QRtq622WhDvueeemWMee+yx5LY/97nPBXHeZI9xIVsRhZF5xa9xcXRc4L7RRhtljskrso7Fx2222WZl+1LEoo5xseWKK66Y2Sde9Dcu6I0XVJayBeJTpkwpu0/8nFXyuMXyCkovvfTSII6Luw844IDMMdOmTUtuO5Z3vyuvvHKvfStisWQpu8BqPH7i8SVlx2AR4zav7bzFX8s56aSTgvgnP/lJZp/4xwGf+MQnMvtUU1y8yy67BHFcKJ/3nE2dOjW5nWr8+Mc/LrtPvJhw3nt5s8o7v7jAOm+cNnNhfCXqtZhwPHlxPLnxTjvtlDkmnjw6byLT2DbbbBPEo0aNyuxTxPt/b7gCBQAAkIgECgAAIBEJFAAAQKKG1kDNnj07s+2RRx4J4rjmYK+99socs8oqqyS3vd122wXxgAEDMvv8z//8TxAXMZFa3mR9f/rTn4J43XXXDeKjjjoqc0w82WaeeILO+H7zvhOP60Kq8d3vfjeIzz777Mw+ca3SscceG8R5NS3xRGnjxo3L7BNPiBrXksT1QUXp169fEOfVypxwwgl9bifvfuO2a+X3v/99EMeLgsbjS8qO3SLGrZQdu2eeeWbZ+y0n7/UQT+p52GGHZfbZddddk9vaYostgjiuE2ymSRvjulRJ+vOf/xzEM2fOrFd3aiKe7DFvAfdK6nKQ/Yw79dRTgzjvPey4444L4kpqlcaOHRvEeXlArd//uQIFAACQiAQKAAAgEQkUAABAoobWQOUtwjl//vwgjutc8uaEqWYRwbjOIm9OpIcffjiIi5hDYvr06Zltce3FsGHDgnjHHXfMHFNJX+J6oPh+82o+7rzzzrL3W861114bxEceeWRmn09+8pNBHM/v9eGHH2aOGTRoUBDH9SlStpbttttuC+IHH3wwp8fp4rEb1/aMHDkyc8x+++3X53bz7jduu5rFbStxxx13BHG5cStlx24R4zav7bzXVaq8sb/99tsH8Wc+85nMPnH9TCXi+e0GDhxYti+Nkjf/0VNPPRXEL7zwQr26UxPxvFZ/+9vfMvu8++679epOS4tfi/FrNe89LK5tznv/j8XvCx0dHZl9XnrppSCOP9P7iitQAAAAiUigAAAAEpFAAQAAJCKBAgAASNTQIvK84styi4IOHTo0s23IkCHJbecVjcfiBW3zJpSrhXKLMUrZxS/zxMV7lZxzEeLCvXPOOSezz+9+97sgHj16dHI7lZzPKaecEsRFLSZ5//33B/GMGTOCOK9gPF4wthp55xy3HfetKM8//3yvt8fjVsqO3VqN20om6CznxBNPzGy7/fbbgzjvhwuVnFMsPsc4zlvYGGgHeZNWV/P+X+41VA9cgQIAAEhEAgUAAJCIBAoAACBRQ2ug4snLJOmCCy4I4ieffDKI40UHpeoWU3399deD+De/+U1mn3jiwLwJ5VLlTcYWL767yy67BHE8yWS1brzxxiCOJ5mUpLfeeqvP7cSPU96kgHG9ybe+9a0grmSB6L/85S+Zbdddd10Qx+OnmnqVPHGtXrzQ7mOPPZY5Jm/spvrZz36W2RY/DuXqCKsVL3BbbtxKxYzdeNxK2bFbzWSWsTlz5mS2/fCHPwzigw46KLPP5ptvntxWudfiiy++mHyfQG+Keu8rJ65HrNVrKNbZ2ZnZFteDFj0ZKlegAAAAEpFAAQAAJCKBAgAASEQCBQAAkKihReR5E1PGxZVxMe6kSZMKaXvRokVBfNZZZ2X2qcUK43mF86eddloQv/nmm0Gct3p1Na655pogPv/88zP7LFmypJC2lpVXnBs/3ttuu20QDx8+vOz9Xn/99Zltp59+ehDXagX1eOyWG7dSMWM3LlaXsoXytRJPQlpu3ErFjN143ErZsVvEuM0r3I4nfB0xYkRmn2om2C33WqzF67BS8es1fq+Uyk+q2sxmzZqV2Rb/QCL+kVGziz9X8s4x/jyr1RiLJ1Ku1WsodtFFF2W23XXXXX2+395wBQoAACBRxQmUmfUzs5lmdl0pXt/M7jOzx83sj2Y2sHbdBAAAaB4pV6COljR3mfjnkk519w0lvSrp8CI7BgAA0KyswsU9R0m6UNJ/SPq2pH0kLZK0lrt/YGbbSPqJu+9R5n6SZ/Lq6OgI4k022ST1LnLF3//Omzcvs09evVItxIsgxt8R5y0mXI34O/C8mo96TbY2cGB4wXLMmDFBnLfgZKyS2owiJj+tRjxupWLG7qOPPprZVqs6r3LKjVupmLGbV4sYj91ajdt4kt68RU+HDRuWfL/lXov1eh3mGTt2bBDnvRbj/taiXrRWxo0bl9kW1+A899xzmX2auS4qfj+Nn0Mp+3kWf+bVqiaqVq+hWF4taFzbVqUH3H1C3g2VXoH6jaRjJS39NFpd0mvuvnTUzZe0Tl96CAAA0CrKJlBmtrekhe7+QDUNmNkUM+sys65qjgcAAGg2lUxjsJ2kfc1sL0kdklaW9FtJw8ysf+kq1ChJC/IOdvdOSZ1SdV/hAQAANJuKaqD+d2eznSR91933NrMrJF3l7peZ2VmS/ubuvytzPAkUAABoFX2ugcrzfUnfNrPH1V0TdW4f7gsAAKBlJF2B6nNjXIECAACtoyZXoAAAAJZLJFAAAACJSKAAAAASkUABAAAkIoECAABIRAIFAACQiAQKAAAgEQkUAABAIhIoAACARCRQAAAAiUigAAAAEpFAAQAAJCKBAgAASEQCBQAAkIgECgAAIBEJFAAAQCISKAAAgEQkUAAAAIlIoAAAABKRQAEAACQigQIAAEhEAgUAAJCIBAoAACARCRQAAEAiEigAAIBEJFAAAACJSKAAAAASkUABAAAk6l/n9l6S9IykNUp/o3g8trXDY1tbPL61w2NbOzy2tdMMj+3HerrB3L2eHelu1KzL3SfUveHlAI9t7fDY1haPb+3w2NYOj23tNPtjy1d4AAAAiUigAAAAEjUqgepsULvLAx7b2uGxrS0e39rhsa0dHtvaaerHtiE1UAAAAK2Mr/AAAAAS1T2BMrNJZvaYmT1uZsfVu/12YmajzWy6mc0xs9lmdnRp+2pmdquZzSv9u2qj+9qqzKyfmc00s+tK8fpmdl9p/P7RzAY2uo+tyMyGmdmVZvaomc01s20Yt8Uws2NK7wePmNlUM+tg3FbPzM4zs4Vm9sgy23LHqnU7rfQ4/83Mtmhcz5tfD4/tL0vvC38zsz+Z2bBlbvtB6bF9zMz2aEinl1HXBMrM+kn6b0l7Shor6UAzG1vPPrSZDyR9x93HStpa0tdKj+dxkm5z9zGSbivFqM7RkuYuE/9c0qnuvqGkVyUd3pBetb7fSrrJ3TeR9Cl1P8aM2z4ys3UkfVPSBHffXFI/SQeIcdsXF0iaFG3raazuKWlM6b8pks6sUx9b1QXKPra3Strc3T8p6e+SfiBJpc+2AyRtVjrmd6WcomHqfQVqoqTH3f1Jd39f0mWSJte5D23D3Z939wdLf7+p7g+hddT9mF5Y2u1CSfs1pIMtzsxGSfqcpHNKsUn6rKQrS7vw2FbBzFaRtIOkcyXJ3d9399fEuC1Kf0mDzay/pCGSnhfjtmru/hdJr0SbexqrkyX9wbvdK2mYmY2sS0dbUN5j6+63uPsHpfBeSaNKf0+WdJm7v+fuT0l6XN05RcPUO4FaR9Jzy8TzS9vQR2a2nqTxku6TNMLdny/d9IKkEY3qV4v7jaRjJX1UileX9NoyL27Gb3XWl7RI0vmlr0fPMbMVxbjtM3dfIOkUSc+qO3F6XdIDYtwWraexymdcsQ6TdGPp76Z7bCkibwNmNlTSVZK+5e5vLHubd//Mkp9aJjKzvSUtdPcHGt2XNtRf0haSznT38ZLeVvR1HeO2OqVanMnqTlLXlrSisl+RoECM1dows+PVXaZySaP70pN6J1ALJI1eJh5V2oYqmdkAdSdPl7j71aXNLy69bFz6d2Gj+tfCtpO0r5k9re6vmj+r7rqdYaWvRiTGb7XmS5rv7veV4ivVnVAxbvtuV0lPufsid18i6Wp1j2XGbbF6Gqt8xhXAzP5F0t6SvuT/N9dS0z229U6gZkgaU/pFyEB1F4RNq3Mf2kapJudcSXPd/dfL3DRN0ldKf39F0rX17lurc/cfuPsod19P3eP0dnf/kqTpkj5f2o3Htgru/oKk58xs49KmXSTNEeO2CM9K2trMhpTeH5Y+tozbYvU0VqdJOqT0a7ytJb2+zFd9qICZTVJ36cS+7v7OMjdNk3SAmQ0ys/XVXah/fyP6uFTdJ9I0s73UXVvST9J57v4fde1AGzGz7SX9VdLD+r86nR+quw7qcknrSnpG0hfcPS6CRIXMbCdJ33X3vc1sA3VfkVpN0kxJB7v7ew3sXksys3HqLs4fKOlJSYeq+3/oGLd9ZGYnSvqiur/+mCnpCHXXijBuq2BmUyXtJGkNSS9KOkHSNcoZq6Wk9Qx1f236jqRD3b2rAd1uCT08tj+QNEjSy6Xd7nX3I0v7H6/uuqgP1F2ycmN8n/XETOQAAACJKCIHAABIRAIFAACQiAQKAAAgEQkUAABAIhIoAACARCRQAAAAiUigAAAAEpFAAQAAJPr/AcHN6hAVcC4JAAAAAElFTkSuQmCC;clipPath=inset(57.09% 0.33% 3.19% 4.67%);" vertex="1" parent="1">
          <mxGeometry x="-350" y="327.25" width="171.77" height="67.5" as="geometry" />
        </mxCell>
        <mxCell id="okRBM69BKqi_v_l5vlfQ-8" value="" style="shape=image;imageAspect=0;aspect=fixed;verticalLabelPosition=bottom;verticalAlign=top;fillColor=#330000;image=data:image/png,iVBORw0KGgoAAAANSUhEUgAAAlAAAAIsCAYAAAA9Apf/AAAAOXRFWHRTb2Z0d2FyZQBNYXRwbG90bGliIHZlcnNpb24zLjUuMiwgaHR0cHM6Ly9tYXRwbG90bGliLm9yZy8qNh9FAAAACXBIWXMAAAsTAAALEwEAmpwYAAA+Q0lEQVR4nO3debhcVZX//88i000IEIYQAgkCEoaAmmAIowwyBQQC37YVELEZTNM4IA6I0oog3e2AokALXBllCDIJaWaEgMKPIRcShCRgmEkEEuYpQID1++NWurP3OfdW7bqnxrxfz8OTu06dU3ufql1Vi1Or9jZ3FwAAACq3QqM7AAAA0GpIoAAAABKRQAEAACQigQIAAEhEAgUAAJCIBAoAACBR/zq3x5wJAACgVVhPN9Q7gdLg8V+vd5N1s3jmGXr3g0b3ojY6+qttz03i/Fod59e62vncJM6v1XX0kiXxFR4AAEAiEigAAIBEJFAAAACJSKAAAAASkUABAAAkIoECAABIRAIFAACQiAQKAAAgEQkUAABAoopnIjezTSRNlrROadMCSdPcfW4tOgYAANCsKroCZWbfl3SZuteEub/0n0maambHlTl2ipl1mVlXZ2dnX/sLAADQcOZefn1fM/u7pM3cfUm0faCk2e4+psL2nLXwWtPysN4R59e6OL/W1c7nJnF+ra6jf8+LCVdaA/WRpLVzto8s3QYAALDcqLQG6luSbjOzeZKeK21bV9KGktr3khIAAECOihIod7/JzDaSNFFhEfkMd/+wVp0DAABoRhX/Cs/dP5J0bw37AgAA0BKYBwoAACARCRQAAEAiEigAAIBEJFAAAACJSKAAAAASkUABAAAkIoECAABIVNFaeAWqa2MAAAB90ONaeBVPpFmUNl90sG3Pr53PTeL8Wh3n17ra+dyk7vMbPL59VzxbPPMMLV7S6F7UzuABPd/GV3gAAACJSKAAAAASkUABAAAkIoECAABIRAIFAACQiAQKAAAgEQkUAABAIhIoAACARCRQAAAAiQpJoMzs0CLuBwAAoBUUdQXqxJ5uMLMpZtZlZl2dnZ0FNQcAANA4Fa+FZ2Z/6+kmSSN6Os7dOyUtzZy8ndc8AgAAy4eUxYRHSNpD0qvRdpP0/xXWIwAAgCaXkkBdJ2mou8+KbzCzO4rqEAAAQLOrOIFy98N7ue2gYroDAADQ/JjGAAAAIBEJFAAAQCISKAAAgEQkUAAAAIlIoAAAABKRQAEAACQigQIAAEhEAgUAAJDI3L2e7dW1MQAAgD6wnm5IWcqlEO28mHBH//Y9v3Y+N4nza3WcX+tq53OTOL9W19FLlsRXeAAAAIlIoAAAABKRQAEAACQigQIAAEhEAgUAAJCIBAoAACARCRQAAEAiEigAAIBESQmUmW1iZruY2dBo+6RiuwUAANC8Kk6gzOybkq6V9A1Jj5jZ5GVu/s+iOwYAANCsUq5AfVXSp919P0k7SfqRmR1duq3HtWLMbIqZdZlZV2dnZ9UdBQAAaBYpa+Gt4O5vSZK7P21mO0m60sw+pl4SKHfvlLQ0c/J2XjMHAAAsH1KuQL1oZuOWBqVkam9Ja0j6RMH9AgAAaFopCdQhkl5YdoO7f+Duh0jaodBeAQAANLGKv8Jz9/m93HZ3Md0BAABofswDBQAAkIgECgAAIBEJFAAAQCISKAAAgEQkUAAAAIlIoAAAABKRQAEAACQyd69ne3VtDAAAoA96XKouZS28QrTzWngd/dv3/Nr53CTOr9Vxfq2rnc9N4vxaXUcvWRJf4QEAACQigQIAAEhEAgUAAJCIBAoAACARCRQAAEAiEigAAIBEJFAAAACJSKAAAAASkUABAAAkSpqJ3MwmSnJ3n2FmYyVNkvSou99Qk94BAAA0oYoTKDM7QdKekvqb2a2StpI0XdJxZjbe3f+jRn0EAABoKilf4X1e0naSdpD0NUn7uftPJe0h6Ys9HWRmU8ysy8y6Ojs7+9RZAACAZpDyFd4H7v6hpHfM7Al3f0OS3H2xmX3U00Hu3ilpaebk7bzoIAAAWD6kXIF638yGlP7+9NKNZraKpB4TKAAAgHaTcgVqB3d/T5LcfdmEaYCkrxTaKwAAgCZWcQK1NHnK2f6SpJcK6xEAAECTYx4oAACARCRQAAAAiUigAAAAEpFAAQAAJCKBAgAASEQCBQAAkIgECgAAIJG5ez3bq2tjAAAAfWA93ZAyE3kh2nktvI7+7Xt+7XxuEufX6ji/1tXO5yZxfq2uo5csia/wAAAAEpFAAQAAJCKBAgAASEQCBQAAkIgECgAAIBEJFAAAQCISKAAAgEQkUAAAAIlIoAAAABJVnUCZ2R+K7AgAAECrqGgpFzObFm+StLOZDZMkd9+3l2OnSJoiSWeffbYOOWxKdT0FAABoEpWuhTdK0hxJ56h7QWCTNEHSr8od6O6dkjqXhu28Zg4AAFg+VPoV3gRJD0g6XtLr7n6HpMXufqe731mrzgEAADSjiq5AuftHkk41sytK/75Y6bEAAADtJikJcvf5kv7ZzD4n6Y3adAkAAKC5VXUVyd2vl3R9wX0BAABoCcwDBQAAkIgECgAAIBEJFAAAQCISKAAAgEQkUAAAAIlIoAAAABKRQAEAACQyd69ne3VtDAAAoA+spxvqvhxLOy8m3NG/fc+vo780ePzXG92Nmlk884y2fe6k9h6bEufXytr53CTOr9V19JIl8RUeAABAIhIoAACARCRQAAAAiUigAAAAEpFAAQAAJCKBAgAASEQCBQAAkIgECgAAIFHVE2ma2faSJkp6xN1vKa5LAAAAza3iK1Bmdv8yf39V0hmSVpJ0gpkdV4O+AQAANKWUr/AGLPP3FEm7ufuJknaX9KWeDjKzKWbWZWZdnZ2dVXYTAACgeaR8hbeCma2q7qTL3H2RJLn722bW40o47t4paWnm5O28Zg4AAFg+pCRQq0h6QN0rE7uZjXT3581sqHpZrRgAAKDdVJxAuft6Pdz0kaT9C+kNAABAC6j6V3hLufs7kp4qoC8AAAAtgXmgAAAAEpFAAQAAJCKBAgAASEQCBQAAkIgECgAAIBEJFAAAQCISKAAAgETm7vVsr66NAQAA9EGPK630eSLNVO28Fl5H//Y9v3Y+N2n5OL/B47/e6G7UzOKZZ7T989eu59fO5yZxfq2uo5csia/wAAAAEpFAAQAAJCKBAgAASEQCBQAAkIgECgAAIBEJFAAAQCISKAAAgEQkUAAAAIlIoAAAABJVnECZ2VZmtnLp78FmdqKZ/Y+Z/dzMVqldFwEAAJpLyhWo8yS9U/r7t5JWkfTz0rbzC+4XAABA00pJoFZw96Ur3kxw92+5+13ufqKkDXo6yMymmFmXmXV1dnb2qbMAAADNIGUx4UfM7FB3P1/SQ2Y2wd27zGwjSUt6OsjdOyUtzZy8nRcdBAAAy4eUK1BHSNrRzJ6QNFbSPWb2pKTfl24DAABYLlR8BcrdX5f0L6VC8vVLx8539xdr1TkAAIBmlPIVniTJ3d+Q9FAN+gIAANASmAcKAAAgEQkUAABAIhIoAACARCRQAAAAiUigAAAAEpFAAQAAJCKBAgAASGTuXs/26toYAABAH1hPNyRPpNlX7bwWXkf/9j2/dj43ifNrdcvD+Q3e6nuN7kZNLL7vlxo8/uuN7kbNLJ55RtuPzXY/v57wFR4AAEAiEigAAIBEJFAAAACJSKAAAAASkUABAAAkIoECAABIRAIFAACQiAQKAAAgEQkUAABAoooTKDP7ppmNrmVnAAAAWkHKFaifSrrPzP5qZkeZ2fBKDjKzKWbWZWZdnZ2d1fUSAACgiaSshfekpE9L2lXSFyWdaGYPSJoq6Wp3fzPvIHfvlLQ0c/J2XjMHAAAsH1KuQLm7f+Tut7j74ZLWlvQ7SZPUnVwBAAAsF1KuQNmygbsvkTRN0jQzG1JorwAAAJpYyhWoL/Z0g7u/U0BfAAAAWkLFCZS7/72WHQEAAGgVzAMFAACQiAQKAAAgEQkUAABAIhIoAACARCRQAAAAiUigAAAAEpFAAQAAJDJ3r2d7dW0MAACgD6ynG1KWcilEOy8m3NG/fc+vnc9N6j6/weO/3uhu1MzimWfw/LWwxTPP0OIlje5FbQwe0P7vLZxf6+roJUviKzwAAIBEJFAAAACJSKAAAAASkUABAAAkIoECAABIRAIFAACQiAQKAAAgEQkUAABAooom0jSzgZIOkPQPd/+zmR0kaVtJcyV1unubTvEGAACQVelM5OeX9h1iZl+RNFTS1ZJ2kTRR0ldq0z0AAIDmU2kC9Ql3/6SZ9Ze0QNLa7v6hmV0s6aHeDjSzKZKmSNLZZ5+tQw6b0qcOAwAANFqlCdQKpa/xVpQ0RNIqkl6RNEjSgN4OdPdOSZ1Lw3ZeMwcAACwfKk2gzpX0qKR+ko6XdIWZPSlpa0mX1ahvAAAATamiBMrdTzWzP5b+/oeZ/UHSrpJ+7+7317KDAAAAzabSK1By938s8/drkq6sRYcAAACaHfNAAQAAJCKBAgAASEQCBQAAkIgECgAAIBEJFAAAQCISKAAAgEQkUAAAAIlIoAAAABKZu9ezvbo2BgAA0AfW0w0Vz0RelHZeTLijvzR4/Ncb3Y2aWDzzjLZ/7ji/1sX5ta52Pjdp+Ti/wROOaXQ3amZx16k93sZXeAAAAIlIoAAAABKRQAEAACQigQIAAEhEAgUAAJCIBAoAACARCRQAAEAiEigAAIBEFU+kaWYbSPp/kkZL+lDS3yVd6u5v1KhvAAAATamiK1Bm9k1JZ0nqkLSlpEHqTqTuNbOdatU5AACAZlTpV3hflbSnu58saVdJm7n78ZImSep5nnNJZjbFzLrMrKuzs7NvvQUAAGgCKWvh9Vf3V3eDJA2VJHd/1swG9HaQu3dKWpo5eTuvCQQAAJYPlSZQ50iaYWb3SfqMpJ9LkpkNl/RKjfoGAADQlCpKoNz9t2b2Z0mbSvqVuz9a2r5I0g417B8AAEDTqfgrPHefLWl2DfsCAADQEpgHCgAAIBEJFAAAQCISKAAAgEQkUAAAAIlIoAAAABKRQAEAACQigQIAAEhk7t7oPtSMmU0pLSXTltr5/Nr53CTOr9Vxfq2rnc9N4vzqqd2vQE1pdAdqrJ3Pr53PTeL8Wh3n17ra+dwkzq9u2j2BAgAAKBwJFAAAQKJ2T6Ca4nvSGmrn82vnc5M4v1bH+bWudj43ifOrm7YuIgcAAKiFdr8CBQAAULi2TKDMbJKZPWZmj5vZcY3uT5HM7DwzW2hmjzS6L7VgZqPNbLqZzTGz2WZ2dKP7VCQz6zCz+83sodL5ndjoPhXNzPqZ2Uwzu67RfSmamT1tZg+b2Swz62p0f4pmZsPM7Eoze9TM5prZNo3uU1HMbOPS87b0vzfM7FuN7leRzOyY0vvKI2Y21cw6Gt2nopjZ0aXzmt0sz1vbfYVnZv0k/V3SbpLmS5oh6UB3n9PQjhXEzHaQ9JakP7j75o3uT9HMbKSkke7+oJmtJOkBSfu10fNnklZ097fMbICkuyQd7e73NrhrhTGzb0uaIGlld9+70f0pkpk9LWmCu7/U6L7UgpldKOmv7n6OmQ2UNMTdX2twtwpX+pxYIGkrd3+m0f0pgpmto+73k7HuvtjMLpd0g7tf0Nie9Z2ZbS7pMkkTJb0v6SZJR7r7443sVztegZoo6XF3f9Ld31f3gz65wX0qjLv/RdIrje5Hrbj78+7+YOnvNyXNlbROY3tVHO/2VikcUPqvbf4vxsxGSfqcpHMa3RekMbNVJO0g6VxJcvf32zF5KtlF0hPtkjwto7+kwWbWX9IQSf9ocH+Ksqmk+9z9HXf/QNKdkv5fg/vUlgnUOpKeWyaerzb6AF6emNl6ksZLuq/BXSlU6SuuWZIWSrrV3dvp/H4j6VhJHzW4H7Xikm4xswfMrGkm9CvI+pIWSTq/9BXsOWa2YqM7VSMHSJra6E4Uyd0XSDpF0rOSnpf0urvf0theFeYRSZ8xs9XNbIikvSSNbnCf2jKBQhsws6GSrpL0LXd/o9H9KZK7f+ju4ySNkjSxdHm65ZnZ3pIWuvsDje5LDW3v7ltI2lPS10pfqbeL/pK2kHSmu4+X9LaktqohlaTSV5P7Srqi0X0pkpmtqu5vW9aXtLakFc3s4Mb2qhjuPlfSzyXdou6v72ZJ+rCRfZLaM4FaoDAzHVXahhZRqg26StIl7n51o/tTK6WvR6ZLmtTgrhRlO0n7luqELpP0WTO7uLFdKlbp//Ll7gsl/UndJQPtYr6k+ctcEb1S3QlVu9lT0oPu/mKjO1KwXSU95e6L3H2JpKslbdvgPhXG3c9190+7+w6SXlV3rXNDtWMCNUPSGDNbv/R/GgdImtbgPqFCpSLrcyXNdfdfN7o/RTOz4WY2rPT3YHX/2OHRhnaqIO7+A3cf5e7rqft1d7u7t8X/AUuSma1Y+mGDSl9t7a7urxbagru/IOk5M9u4tGkXSW3x443IgWqzr+9KnpW0tZkNKb2P7qLuGtK2YGZrlv5dV931T5c2tkfdl2zbirt/YGZfl3SzpH6SznP32Q3uVmHMbKqknSStYWbzJZ3g7uc2tleF2k7SlyU9XKoTkqQfuvsNjetSoUZKurD0K6AVJF3u7m33c/82NULSn7o/m9Rf0qXuflNju1S4b0i6pPQ/n09KOrTB/SlUKfHdTdK/NrovRXP3+8zsSkkPSvpA0kw10azdBbjKzFaXtETS15rhBw5tN40BAABArbXjV3gAAAA1RQIFAACQiAQKAAAgEQkUAABAIhIoAACARCRQAAAAiUigAAAAEpFAAQAAJCKBAgAASEQCBQAAkIgECgAAIBEJFAAAQCISKAAAgEQkUAAAAIlIoAAAABKRQAEAACQigQIAAEhEAgUAAJCIBAoAACARCRQAAEAiEigAAIBEJFAAAACJSKAAAAASkUABAAAkIoECAABIRAIFAACQiAQKAAAgEQkUAABAIhIoAACARCRQAAAAiUigAAAAEpFAAQAAJCKBAgAASEQCBQAAkIgECgAAIBEJFAAAQCISKAAAgEQkUAAAAIlIoAAAABKRQAEAACQigQIAAEhEAgUAAJCIBAoAACARCRQAAEAiEigAAIBEJFAAAACJSKAAAAASkUABAAAkIoECAABIRAIFAACQiAQKAAAgUZ8SKDObZGaPmdnjZnZcUZ0CAABoZubu1R1o1k/S3yXtJmm+pBmSDnT3OcV1DwAAoPn078OxEyU97u5PSpKZXSZpsqQeEygzqy5bAwAAqL+X3H143g19+QpvHUnPLRPPL20DAABoB8/0dENfrkBVxMymSJpS63YAAADqpS8J1AJJo5eJR5W2Bdy9U1KnxFd4AACgPfTlK7wZksaY2fpmNlDSAZKmFdMtAACA5lX1FSh3/8DMvi7pZkn9JJ3n7rML6xkAAECTqnoag6oa4ys8AADQOh5w9wl5NzATOQAAQCISKAAAgEQkUAAAAIlIoAAAABKRQAEAACQigQIAAEhEAgUAAJCIBAoAACARCRQAAEAiEigAAIBEJFAAAACJSKAAAAASkUABAAAkIoECAABIRAIFAACQiAQKAAAgEQkUAABAIhIoAACARCRQAAAAiUigAAAAEpFAAQAAJCKBAgAASEQCBQAAkIgECgAAIBEJFAAAQCISKAAAgEQkUAAAAIlIoAAAABKRQAEAACQigQIAAEhEAgUAAJCof6M7UM5qq60WxIccckgh9/vWW28F8R//+MfMPm+++WYhbZXTr1+/IJ4wYUIQb7PNNoW0c8899wRxV1dXZp8PP/ywkLaW1dHRkdm2++67B/EGG2xQeLtS9jm8+OKLM/u89957NWk7ttlmmwXxbrvtVvaYW2+9NYhnz55daJ/6oty4lYoZu/G4lbJjtxbjNs/w4cMz2/bff/8gHjJkSBA/88wzmWPi5zV+PyrKjjvuGMTjx4+vSTu1MnPmzCC+9957gzh+H5Gkj3/84zXtU5HuuOOOzLZZs2Yl38/KK68cxIcddlhmn/i98LLLLgvit99+O7ndSsTv/3nPWRHv/9dcc01m29NPP93n++0NV6AAAAASkUABAAAkKptAmdl5ZrbQzB5ZZttqZnarmc0r/btqbbsJAADQPCq5AnWBpEnRtuMk3ebuYyTdVooBAACWC2WLyN39L2a2XrR5sqSdSn9fKOkOSd9PbdzMMtviAswxY8YE8amnnpraTK4XXnghiOPiREmaN29eEBdRbJx3znGh/OTJk4P4Bz/4QZ/blaT/+q//CuInn3wys89LL70UxO7e53ZXXHHFzLYjjjgiiPfZZ58+t5PnueeeC+Irr7wys08tntd4HEvSDjvsEMSVjOWjjjoqiPOKIt95550gLuI5yxOfY7lxKxUzduNxK2XHbi3GrSQNHDgwiOP3I0k6+eSTgzguNM8rFJ47d24QP/7440H8wQcfpHSzR3GB+9FHH13I/dbLb3/72yB+6KGHgjivWHq//farZZcKdcwxx2S2VVNEvu666wZx3ntL/F544403BnFRReTxj0vWWmutID7yyCMzx+y55559bnfBggWZba+88koQx4X0fX2fqLYGaoS7P1/6+wVJI/rUCwAAgBbS52kM3N3NrMc0zsymSJrS13YAAACaRbVXoF40s5GSVPp3YU87ununu09w9+wkMQAAAC2o2itQ0yR9RdLPSv9eW82dDBgwILPt3/7t34J40qS4fr0Yw4YNC+Jf/epXmX1OP/30IL7hhhuC+KOPPkpud/DgwZlt55xzThBvtNFGyfdbibgeIp7YUZK+/OUvB/Ebb7zR53bjOhJJGjRoUJ/vt5msssoqQfzNb34zs8+2226bfL9xXVHeRI6nnXZaEL/22mvJ7VRipZVWCuJGjVspO3YPPPDAII7rwioR125I2YkoDz744Mw+eTV+y8qbJDCufYlrVh599NFe7xNY1gknnNDoLvyv0aNHB/F///d/B3GtJnPNqyeLJ+2MawCreZ9YViXTGEyVdI+kjc1svpkdru7EaTczmydp11IMAACwXKjkV3gH9nDTLgX3BQAAoCUwEzkAAECihi4mnLfIbFwnsssu4YWu999/P3NMNd9jDh06NIjzFjicPn16EN98881BXE0NVP/+2Yd833337fV+8xYarWSemLituEZlk002yRyzxhprBHERNVAjR47MbIvnBokXgy1qIefXX389iIuaHyiul9lyyy2DOG9OpDXXXDOIK6lVimt98mqg4sV2b7/99iAuaqHduG6t3LiVsmO3iHErZcdu3usq1aqrZhdUiM8xnstLkt59990gjt+j8uoe44Wkn3rqqSDOm8enmvnKFi9eHMS1qo+rRPwcxe/BS5YsyRwTP7bx6zfvvbFR55j3eRZvi5/Dap7TrbfeOrMt7/OrUeKFjffaa68gzns/quZ9On4/yntc4nqsuG81r4ECAABAiAQKAAAgEQkUAABAIhIoAACARA0tIs+bgK7cpHR5RYPPPvtsctsbbrhhEMcFjVJ2sdS4cDiv6LEIcZHdiy++mNmnkiLreOLDeMHJFVbI5s9xwXfegsOpNt1008y2sWPHBnH8WOYtmluN+LGrpvA/TzwJ7EEHHRTEn/jEJzLHxIWSlZzjqFGjyt5v3PZf//rXIC6qiLycvHbix7+IcSvlj92+ymsnXqw2b/zEz2NcKJ/33hI/r8cff3wQx5OUStUVHL/88stBXNTrqhrx8xo/LnkFva+++moQx4//okWLMsfU6xzjxbXjH4lI2ffT+Ec51fxIJ29B6PixbWZ5n5vxQseV/NgkfrzjHyZJ2ffp+DP9hRdeKNtOb7gCBQAAkIgECgAAIBEJFAAAQKKG1kDlTeQYb4snpbv11lszx1x7bfpaxocffngQ502QF0/iecoppwRxPMlbteJJw+bPnx/E559/fuaYSmqT4kVM43Neb731MscccsghQXz33XeXbaecvEWj40n14u+if/GLX/S5XSlbV1FNHUmeuP4hniwx75xnz54dxGeffXbZdv71X/81iOPFbfPajvtWlLgeqNy4lbJjt4hxK2XH7le/+tUgzlscvJy8uqohQ4YE8TPPPJPZJ14sNa5123zzzTPHHHnkkUEc12YU9RzGk6ouWLCgkPutxrhx44L42GOPDeJ58+Zljonff+LX79VXX505ZsaMGVX2ME38HhZPuipJn//854P4gQceCOKurq6y7eyzzz5BPGHChMw+lYyXoiYRThXXRs6ZMyezz1lnnRXEebXOsW222SaIv/zlL2f2iWvD4s/0vL6k4AoUAABAIhIoAACARCRQAAAAiUigAAAAEjW0iDxv4rp4WzyR2g033JA5ZurUqcltx4WqW221VWafLbbYIojjgtJq5K0sH08O98QTTwTxVVddlTnm0UcfLdtWXJC/0047BXHe41+LVb0rKV6MJ1is5jmtp2HDhgXxqquuGsR5PzC44447griSc9x4442DOG+cxm3HfVu8eHHZdiqx//77B3G5cStlx24R41bKjt1//ud/DuJqisjjx1rKFsDm9f/yyy8P4ldeeSWI856zvffeO4jj5zDvfSJv0shyHnzwwV7jWuno6MhsW3311Xs9Ju9HCI888kgQxz8quuuuu6roXTHi84mLmvM89thjvcZ54vGf9+OfStTqxyWx+HUUT4qZNwYvu+yyIK5kwt2FCxcG8Z577pnZJ54wO/5M7yuuQAEAACQigQIAAEhEAgUAAJCooTVQlYgXw7zpppsKud/rr78+iL/2ta9l9slbBLSvTj755My2uJYk/t4/b/K+SsTHxfebNykjKjNx4sRe4+effz5zzHnnnZfcTnxMPNFpJX2pZqLZPPFkj+XGrVTd2C03bqXs2I37Vo0f//jHmW1vv/12EOdN3FhuQdi8yfr+8pe/BHG84HZeX/bYY49e22kma6+9dmbbMccc04Ce1E78nMU1gkVZeeWVgzhe1L7Z/PSnPw3iuB40b3LmvIWky4knIc2roYtroIrGFSgAAIBEJFAAAACJSKAAAAASNbQGqpJ5KZYsWRLE8dwP1YrvJ26nVvLmmonnSYrnwKh2Hp/4uPh+a7W4ZPydfd7cUnFf8ua6ambl5l7Kq4F69tlnk9uJj8mbX6rcnFRFiRdILjduperGbnzMLbfcktknnp+pXB1SJfLmXorndIoXvZay89zE8h6XeH67+LHM60sr+eIXv5jZFs+9Fz9nM2fOzBxT1OLftRAvXrvWWmtl9onHy3333ZfcTrwgdN5Cu/F7brzwt1S/xYTjz7j4NRTHUvb1XIl40e6i5rtLwRUoAACARCRQAAAAiUigAAAAEpFAAQAAJKp7EfkKK/xfzjZ48OB6N9+jSgra40K9drTs8yNlF1CuZMKzeFLDgw46KLNPPOnZJZdcEsRxYXSevALTuMi6VoWT8SSS9SrQzBO3HfetGnkLZ8djo15uvPHGirb1VTWFrLXSTH2pxpQpU8ruE//Q4rbbbsvs04jC4ErF55j3HvD3v/89iG+99dbkduJFx/MWIY8XGM4rIq/XYsLNbODAgb3GUnbB6t5wBQoAACARCRQAAEAiEigAAIBEda2B6t+/f1Afc8QRR9Sz+T775S9/GcSttLhnpdZYY40gjp+j0047rZB2Vl999SA+9dRTgzhvwshYvCC0JF100UVBXKuJ+OJFZuO4nmrRl7zXZjw22k3e5Kd5tWD1kNeXVhdPOHrPPfcE8WOPPVbP7hQu73V33XXXBXHepKqon+233z6It9tuu8w+06dPr/j+uAIFAACQiAQKAAAgUdkEysxGm9l0M5tjZrPN7OjS9tXM7FYzm1f6tzYLcAEAADSZSmqgPpD0HXd/0MxWkvSAmd0q6V8k3ebuPzOz4yQdJ+n7vd3RCiusENQUbLHFFpl94nk/7r777gq6mC6usXnooYcy+4wYMSKI8xbFbTdxzcf48eNr0k48B9ikSZOS76N//+zwjRcojecLKqoGYcGCBb3GK620UuaYcePGBfGsWbPKthMfk3e/5fpSjbznPR4b8Vxec+fO7XO7jXTHHXdktu23335BvOmmm2b2ufnmm4M4rrsbPnx45ph11103iOM5tvL60szi9/K82rF4frLnnnsuiF9++eXiO1agcu//efMHxfNANfPiyMuD+HUXx6nKXoFy9+fd/cHS329KmitpHUmTJV1Y2u1CSfv1qScAAAAtIqkGyszWkzRe0n2SRrj70p+KvCBpRE/HAQAAtJOKpzEws6GSrpL0LXd/Y9lp4d3dzSx3LQszmyJpiiT169evb70FAABoAhVdgTKzAepOni5x96tLm180s5Gl20dKWph3rLt3uvsEd59AAgUAANpB2StQ1n2p6VxJc93918vcNE3SVyT9rPTvtUV0KC4kjCevLMprr70WxBdffHFmn3iSrbyFB9E4u+22W2bbZz7zmSDeaqutgrioyfpmz57dazx58uTMMYcffngQf+Mb3yjbTnzMyJEjM/tce2340ov7Uitx0fif/vSnurRbK+ecc05m25e+9KUg3n///TP7nHfeeUG8aNGiIB47dmzmmHicxj+IyOtLM4vHad6kq/FEmrFGLshdiWo+i5r9nNA3lXyFt52kL0t62Mxmlbb9UN2J0+VmdrikZyR9oSY9BAAAaDJlEyh3v0uS9XDzLsV2BwAAoPkxEzkAAECiui4mXIl4srW33nqrLu3EE3hK9fv+Oi6uj+t2Nt5448wxldTyxMfF91urov641iGeMK9acQ3asgtTL7XKKqsE8VFHHRXE3/9+dq7XShYujsXjZdq0aUG86667Zo7ZaaedgjheQDlPfEzegqVx23ljuRbi53nQoEGZfQ499NAg3mijjQpp+/TTTw/iJ598ss/3+cQTT2S23XbbbUH8qU99KrPPySefHMTvvPNOEOdN1rfmmmsG8QUXXBDECxfm/ianacUTZ8YTg0rZSSVvuOGGmvapaCuvvHIQf/jhh0F81113ZY555JFHatqnFI2qx4rHxl577ZXZJ17At5IJj3feeecg3nDDDZP7tuxsAtXgChQAAEAiEigAAIBEJFAAAACJSKAAAAASNV0ReV+LuppdXvH3euutF8Tjxo0L4rhYTpIGDx5ctq2tt946iNdaa60gjotdJWmllVYqe7/lxCuO5xVXVmPYsGFBvOWWW2b2WX311YP4C18Ipyc7++yzM8fMmTMnuS/xjxCefvrpIM5bmT2eULGSgup4gsVXXnkls0/cdty3Wolfq6NHj87sc8ghhwRxPCar9dBDDwXxM888E8RxgW8l8gr04/vdZZfszC1xoXxcrJtXUB3/gCMeg0uWLOm9sw0W/4Aj7wcdsfjHJPfee2+hfSpSXuF//COWeIzFY1Iq5scNRanXZ2v8GRf/mCnvNTRhwoQgfvXVV8u2s/feewdx3kSt8Q+EOjo6grivhfVcgQIAAEhEAgUAAJCIBAoAACBR09VAtbt///d/z2zbY489gnjVVVcN4u9+97uZYyqZaCyuZ7r++uuDOG8CyYkTJ5a933LihZp/8pOf9Pk+JWmDDTYI4h/96EeZfeIam7g248ADD8wck3c/5QwYMCCI40Vm4wk9pezj/frrr5dtJ76fvPuN245rS+KatKLE9Vk77rhjZp/NNtusJm3/8Ic/DOIrrrgiiPPqmcpZZ511MtsqqbOI69LiGrS8Rcjjer54wte8xYQrqQupl+23377XuNXFiyNL+QskIyt+P7388suDOO91dtpppwVxuYWnpexktPGEtpL0ve99L4jXX3/9svebgitQAAAAiUigAAAAEpFAAQAAJGq6GqhGLXhYL48++mhmW1zbENdAffzjH6+qrXguovnz5wfxG2+8UdX9lhPPYRMvIlqtuLbqoosuyuwTzwMVz7W0++67Z46ZOnVqEFcyL9Qmm2wSxDvssEMQxzVSUnZh0WuuuaZsO/vtt18Qjx8/PrNP3Hbct7z5aYoQz5UzadKkzD7xXDmVLJIb1wzFi7hK0pgxY4I4nm/qzDPPLNtOLJ7PSZJGjBgRxC+88EJmnz/84Q9BHNdfxbV7UrZuLZ4L7uCDD84cEy+g3Ejx6yyuNcybr6yS8d4o8RxJH/vYxzL7xOMyXnz6nnvuKb5jBarXZ+vs2bOD+K233grioUOHZo7ZfPPNk9uJ5zGcN29eZp9yC8WzmDAAAECdkUABAAAkIoECAABIRAIFAACQqOmKyNt9MeG8hV6feuqpIM4rmq1GXCQeF6u3WsF+XIB81llnZfaJJ9KMC/DzJgqNFyWOi8jzFoPddtttg/hTn/pUEOcV6N99991BfNJJJ2X2iQ0fPjyI835QELcd9+3hhx/OHFPEgsNxgX7eAqzxwqKVTAYZ/4giXoxUyi4KeuyxxwZxJUXk8evs29/+dmafuAj18ccfz+xzyimnBPGiRYuCOG+C0XjMxUXxeZPnnnvuuUGctxh4LeSN/xVXXLHXY1588cXMts7OzsL6VLS4QHzQoEFlj4l/HHPjjTcW2qei1euzNX7NPP/880Gc96OKasSvs7hYvRIsJgwAAFBnJFAAAACJSKAAAAASNV0NVLvLW9g1rtc47rjjCmkrruWZMWNGEP/TP/1TIe00kzPOOCOIP/vZzwbx6NGjk+8zbxHRI444IojjiQPjmhxJmjlzZnLbcd3Lgw8+mNnnF7/4Ra99u+qqqzLHVDKhZTlx/cA//vGPzD5nn312EM+dO7fs/W666aZBnFcPVMSioL/85S+DOG8B02nTpgVxXt1duQlp8yZmjeut/vM//zOI48lQpezzGi/AWit54/+www6rS9v1EtcNbrfddg3qSeuLa5OuvPLKIP7CF75QSDs333xzED/99NOF3G8KrkABAAAkIoECAABIRAIFAACQqOlqoAYPHhzE8XfRV1xxRSHtxPPIfPKTn8zsE88NUoR4cVVJ+vOf/xzEefUP1YjnKYnPOa+2odV1dXUFcTVzg8SGDBmS2bbFFlsE8XPPPRfE8ffzUn6NUDmzZs0K4rzapRNPPLHXvuX1vwjxXFJ5i3nedtttQVzJwtLx4zR58uTMPnmLvaaKF5bOmxsrnsdq+vTpye3ENSFSdnwcffTRQRw/h1L+QtL1kDd+4r4sXrw4iOM5z5pdPIdZXq3km2++GcTNvnhwo8SLacdjvajP1TvvvDOI43npJGmllVYqpK2ecAUKAAAgEQkUAABAIhIoAACARCRQAAAAiZquiHy11VYL4u9973tBXFQR+bBhw4L44IMPzuxTbsHMosQFyHFRcLXiiQHjyfvGjh1bSDtYPsU/iMibKPSJJ55Ivt/4mLz73XnnnZPvF7Xz8ssvB3E8SWk7iH/c8Otf/7pBPWlu8Y8x4mL7vMmAq/H+++8H8cUXX5zZZ+TIkYW01ROuQAEAACQigQIAAEhUNoEysw4zu9/MHjKz2WZ2Ymn7+mZ2n5k9bmZ/NLPiJ00CAABoQpXUQL0n6bPu/paZDZB0l5ndKOnbkk5198vM7CxJh0s6s7c7+uCDD4JFVy+99NLMPgcddFAQDx06tIIuplthhTB3jCfwlCQzC+KTTjqpJn2Ja0niCduKMmjQoCDu3z/79MeL4k6dOjW5ne985ztB/O6772b2uemmm4K4mlqZPPvvv38Qr7766mWPiZ/nasQL69ZTLdrOe9733XffII5fm0uWLMkckzdxbDnxMXn3i/rZc889M9vi+pMHHnggiPMmD20WebWtEydODOJ33nkns088iWo8YWSza9R7VDxW4rgoec9rv379gvj+++8P4hkzZvSpzbJXoLzb0umcB5T+c0mflbR0meULJe3Xp54AAAC0iIpqoMysn5nNkrRQ0q2SnpD0mrsv/ZnXfEnr1KSHAAAATaaiBMrdP3T3cZJGSZooqeLF2sxsipl1mVlXI7/mAAAAKErSr/Dc/TVJ0yVtI2mYmS0tohklaUEPx3S6+wR3n1BErQkAAECjlS0iN7Phkpa4+2tmNljSbpJ+ru5E6vOSLpP0FUnXlruvjz76SG+88cb/xrfccktmn7iIvF4qSe7OP//8Prez4YYbZrbFxdzxpHT1LMhc9vmR8p+jcg4//PAgfu211zL7zJkzJ4iLKiLffffdgzieMDUuku9pW6pG/s9BLdrOe97jsVGrH3igueyzzz6ZbXEhcDw5Yt4PR5rFkCFDMtsqKSK/8847a9aneqjXe1Q8QXP8o5B4QlKpdj+cisWfO3GcqpJf4Y2UdKGZ9VP3FavL3f06M5sj6TIzO1nSTEnn9qknAAAALaJsAuXuf5M0Pmf7k+quhwIAAFiuMBM5AABAoqZbTLjdHX/88Zlt8WSPl19+eRDnLZLYzD72sY8F8UorrZTZJ68OoQhrrbVWEMf1ZXfddVfmmLxtALptvfXWmW3xQuXz5s0L4vfee6+mfeqLjo6OzLZNNgl/WJ5Xtzlr1qwa9ai9nHLKKUEc1zflLcJ833331bRPtcIVKAAAgEQkUAAAAIlIoAAAABI1tAaqknkp4vqZCRMmZPbp6upKbnvLLbcM4rzFhGth/PjMDxq19tprB3E8T0benDwLFy4s29aaa64ZxOutt14QxwsqFyWub/roo48y+8Tzrtx+++1BvHjx4swxca1YfB+StP766wdxfI7VzAMVz38kZZ+TT3/600G88847Z4655JJLem2nEnn3Gz/ecd/y+l+E+LGNx5eUHYNFjNu8tqsRz+v2ox/9KLPPmDFjgniddbIrVi1YkDuHcK8233zzIB4xYkQQVzLmauXQQw8N4lVXXTWzT/yaiRfWzXvNN4sjjjgisy2e0yzvPaFWr6N6qddKIHHNXDw24gV9pWx9WSU1dPGcisOHD6+wh8XhChQAAEAiEigAAIBEJFAAAACJSKAAAAASNbSIfMmSJZlt8QRtq622WhDvueeemWMee+yx5LY/97nPBXHeZI9xIVsRhZF5xa9xcXRc4L7RRhtljskrso7Fx2222WZl+1LEoo5xseWKK66Y2Sde9Dcu6I0XVJayBeJTpkwpu0/8nFXyuMXyCkovvfTSII6Luw844IDMMdOmTUtuO5Z3vyuvvHKvfStisWQpu8BqPH7i8SVlx2AR4zav7bzFX8s56aSTgvgnP/lJZp/4xwGf+MQnMvtUU1y8yy67BHFcKJ/3nE2dOjW5nWr8+Mc/LrtPvJhw3nt5s8o7v7jAOm+cNnNhfCXqtZhwPHlxPLnxTjvtlDkmnjw6byLT2DbbbBPEo0aNyuxTxPt/b7gCBQAAkIgECgAAIBEJFAAAQKKG1kDNnj07s+2RRx4J4rjmYK+99socs8oqqyS3vd122wXxgAEDMvv8z//8TxAXMZFa3mR9f/rTn4J43XXXDeKjjjoqc0w82WaeeILO+H7zvhOP60Kq8d3vfjeIzz777Mw+ca3SscceG8R5NS3xRGnjxo3L7BNPiBrXksT1QUXp169fEOfVypxwwgl9bifvfuO2a+X3v/99EMeLgsbjS8qO3SLGrZQdu2eeeWbZ+y0n7/UQT+p52GGHZfbZddddk9vaYostgjiuE2ymSRvjulRJ+vOf/xzEM2fOrFd3aiKe7DFvAfdK6nKQ/Yw79dRTgzjvPey4444L4kpqlcaOHRvEeXlArd//uQIFAACQiAQKAAAgEQkUAABAoobWQOUtwjl//vwgjutc8uaEqWYRwbjOIm9OpIcffjiIi5hDYvr06Zltce3FsGHDgnjHHXfMHFNJX+J6oPh+82o+7rzzzrL3W861114bxEceeWRmn09+8pNBHM/v9eGHH2aOGTRoUBDH9SlStpbttttuC+IHH3wwp8fp4rEb1/aMHDkyc8x+++3X53bz7jduu5rFbStxxx13BHG5cStlx24R4zav7bzXVaq8sb/99tsH8Wc+85nMPnH9TCXi+e0GDhxYti+Nkjf/0VNPPRXEL7zwQr26UxPxvFZ/+9vfMvu8++679epOS4tfi/FrNe89LK5tznv/j8XvCx0dHZl9XnrppSCOP9P7iitQAAAAiUigAAAAEpFAAQAAJCKBAgAASNTQIvK84styi4IOHTo0s23IkCHJbecVjcfiBW3zJpSrhXKLMUrZxS/zxMV7lZxzEeLCvXPOOSezz+9+97sgHj16dHI7lZzPKaecEsRFLSZ5//33B/GMGTOCOK9gPF4wthp55xy3HfetKM8//3yvt8fjVsqO3VqN20om6CznxBNPzGy7/fbbgzjvhwuVnFMsPsc4zlvYGGgHeZNWV/P+X+41VA9cgQIAAEhEAgUAAJCIBAoAACBRQ2ug4snLJOmCCy4I4ieffDKI40UHpeoWU3399deD+De/+U1mn3jiwLwJ5VLlTcYWL767yy67BHE8yWS1brzxxiCOJ5mUpLfeeqvP7cSPU96kgHG9ybe+9a0grmSB6L/85S+Zbdddd10Qx+OnmnqVPHGtXrzQ7mOPPZY5Jm/spvrZz36W2RY/DuXqCKsVL3BbbtxKxYzdeNxK2bFbzWSWsTlz5mS2/fCHPwzigw46KLPP5ptvntxWudfiiy++mHyfQG+Keu8rJ65HrNVrKNbZ2ZnZFteDFj0ZKlegAAAAEpFAAQAAJCKBAgAASEQCBQAAkKihReR5E1PGxZVxMe6kSZMKaXvRokVBfNZZZ2X2qcUK43mF86eddloQv/nmm0Gct3p1Na655pogPv/88zP7LFmypJC2lpVXnBs/3ttuu20QDx8+vOz9Xn/99Zltp59+ehDXagX1eOyWG7dSMWM3LlaXsoXytRJPQlpu3ErFjN143ErZsVvEuM0r3I4nfB0xYkRmn2om2C33WqzF67BS8es1fq+Uyk+q2sxmzZqV2Rb/QCL+kVGziz9X8s4x/jyr1RiLJ1Ku1WsodtFFF2W23XXXXX2+395wBQoAACBRxQmUmfUzs5lmdl0pXt/M7jOzx83sj2Y2sHbdBAAAaB4pV6COljR3mfjnkk519w0lvSrp8CI7BgAA0KyswsU9R0m6UNJ/SPq2pH0kLZK0lrt/YGbbSPqJu+9R5n6SZ/Lq6OgI4k022ST1LnLF3//Omzcvs09evVItxIsgxt8R5y0mXI34O/C8mo96TbY2cGB4wXLMmDFBnLfgZKyS2owiJj+tRjxupWLG7qOPPprZVqs6r3LKjVupmLGbV4sYj91ajdt4kt68RU+HDRuWfL/lXov1eh3mGTt2bBDnvRbj/taiXrRWxo0bl9kW1+A899xzmX2auS4qfj+Nn0Mp+3kWf+bVqiaqVq+hWF4taFzbVqUH3H1C3g2VXoH6jaRjJS39NFpd0mvuvnTUzZe0Tl96CAAA0CrKJlBmtrekhe7+QDUNmNkUM+sys65qjgcAAGg2lUxjsJ2kfc1sL0kdklaW9FtJw8ysf+kq1ChJC/IOdvdOSZ1SdV/hAQAANJuKaqD+d2eznSR91933NrMrJF3l7peZ2VmS/ubuvytzPAkUAABoFX2ugcrzfUnfNrPH1V0TdW4f7gsAAKBlJF2B6nNjXIECAACtoyZXoAAAAJZLJFAAAACJSKAAAAASkUABAAAkIoECAABIRAIFAACQiAQKAAAgEQkUAABAIhIoAACARCRQAAAAiUigAAAAEpFAAQAAJCKBAgAASEQCBQAAkIgECgAAIBEJFAAAQCISKAAAgEQkUAAAAIlIoAAAABKRQAEAACQigQIAAEhEAgUAAJCIBAoAACARCRQAAEAiEigAAIBEJFAAAACJSKAAAAASkUABAAAk6l/n9l6S9IykNUp/o3g8trXDY1tbPL61w2NbOzy2tdMMj+3HerrB3L2eHelu1KzL3SfUveHlAI9t7fDY1haPb+3w2NYOj23tNPtjy1d4AAAAiUigAAAAEjUqgepsULvLAx7b2uGxrS0e39rhsa0dHtvaaerHtiE1UAAAAK2Mr/AAAAAS1T2BMrNJZvaYmT1uZsfVu/12YmajzWy6mc0xs9lmdnRp+2pmdquZzSv9u2qj+9qqzKyfmc00s+tK8fpmdl9p/P7RzAY2uo+tyMyGmdmVZvaomc01s20Yt8Uws2NK7wePmNlUM+tg3FbPzM4zs4Vm9sgy23LHqnU7rfQ4/83Mtmhcz5tfD4/tL0vvC38zsz+Z2bBlbvtB6bF9zMz2aEinl1HXBMrM+kn6b0l7Shor6UAzG1vPPrSZDyR9x93HStpa0tdKj+dxkm5z9zGSbivFqM7RkuYuE/9c0qnuvqGkVyUd3pBetb7fSrrJ3TeR9Cl1P8aM2z4ys3UkfVPSBHffXFI/SQeIcdsXF0iaFG3raazuKWlM6b8pks6sUx9b1QXKPra3Strc3T8p6e+SfiBJpc+2AyRtVjrmd6WcomHqfQVqoqTH3f1Jd39f0mWSJte5D23D3Z939wdLf7+p7g+hddT9mF5Y2u1CSfs1pIMtzsxGSfqcpHNKsUn6rKQrS7vw2FbBzFaRtIOkcyXJ3d9399fEuC1Kf0mDzay/pCGSnhfjtmru/hdJr0SbexqrkyX9wbvdK2mYmY2sS0dbUN5j6+63uPsHpfBeSaNKf0+WdJm7v+fuT0l6XN05RcPUO4FaR9Jzy8TzS9vQR2a2nqTxku6TNMLdny/d9IKkEY3qV4v7jaRjJX1UileX9NoyL27Gb3XWl7RI0vmlr0fPMbMVxbjtM3dfIOkUSc+qO3F6XdIDYtwWraexymdcsQ6TdGPp76Z7bCkibwNmNlTSVZK+5e5vLHubd//Mkp9aJjKzvSUtdPcHGt2XNtRf0haSznT38ZLeVvR1HeO2OqVanMnqTlLXlrSisl+RoECM1dows+PVXaZySaP70pN6J1ALJI1eJh5V2oYqmdkAdSdPl7j71aXNLy69bFz6d2Gj+tfCtpO0r5k9re6vmj+r7rqdYaWvRiTGb7XmS5rv7veV4ivVnVAxbvtuV0lPufsid18i6Wp1j2XGbbF6Gqt8xhXAzP5F0t6SvuT/N9dS0z229U6gZkgaU/pFyEB1F4RNq3Mf2kapJudcSXPd/dfL3DRN0ldKf39F0rX17lurc/cfuPsod19P3eP0dnf/kqTpkj5f2o3Htgru/oKk58xs49KmXSTNEeO2CM9K2trMhpTeH5Y+tozbYvU0VqdJOqT0a7ytJb2+zFd9qICZTVJ36cS+7v7OMjdNk3SAmQ0ys/XVXah/fyP6uFTdJ9I0s73UXVvST9J57v4fde1AGzGz7SX9VdLD+r86nR+quw7qcknrSnpG0hfcPS6CRIXMbCdJ33X3vc1sA3VfkVpN0kxJB7v7ew3sXksys3HqLs4fKOlJSYeq+3/oGLd9ZGYnSvqiur/+mCnpCHXXijBuq2BmUyXtJGkNSS9KOkHSNcoZq6Wk9Qx1f236jqRD3b2rAd1uCT08tj+QNEjSy6Xd7nX3I0v7H6/uuqgP1F2ycmN8n/XETOQAAACJKCIHAABIRAIFAACQiAQKAAAgEQkUAABAIhIoAACARCRQAAAAiUigAAAAEpFAAQAAJPr/AcHN6hAVcC4JAAAAAElFTkSuQmCC;clipPath=inset(1.06% 0.67% 48.58% 0%);" vertex="1" parent="1">
          <mxGeometry x="1040" y="294.5" width="347.48" height="165.58" as="geometry" />
        </mxCell>
        <mxCell id="okRBM69BKqi_v_l5vlfQ-9" value="" style="html=1;shadow=0;dashed=0;align=center;verticalAlign=middle;shape=mxgraph.arrows2.arrow;dy=0.55;dx=20.23;notch=0;fillColor=#f5f5f5;strokeColor=#666666;fontColor=#333333;" vertex="1" parent="1">
          <mxGeometry x="-170" y="341.5" width="50" height="39" as="geometry" />
        </mxCell>
        <mxCell id="okRBM69BKqi_v_l5vlfQ-10" value="" style="html=1;shadow=0;dashed=0;align=center;verticalAlign=middle;shape=mxgraph.arrows2.arrow;dy=0.55;dx=20.23;notch=0;fillColor=#f5f5f5;strokeColor=#666666;fontColor=#333333;" vertex="1" parent="1">
          <mxGeometry x="370" y="341.5" width="50" height="39" as="geometry" />
        </mxCell>
        <mxCell id="okRBM69BKqi_v_l5vlfQ-13" value="&lt;font style=&quot;font-size: 15px;&quot; face=&quot;Verdana&quot;&gt;&lt;b&gt;Input Image&lt;/b&gt;&lt;/font&gt;" style="text;html=1;resizable=0;autosize=1;align=center;verticalAlign=middle;points=[];fillColor=none;strokeColor=none;rounded=0;" vertex="1" parent="1">
          <mxGeometry x="-329.11" y="395" width="130" height="30" as="geometry" />
        </mxCell>
        <mxCell id="okRBM69BKqi_v_l5vlfQ-14" value="&lt;font style=&quot;font-size: 15px;&quot; face=&quot;Verdana&quot;&gt;&lt;b&gt;LSTM Cell&lt;/b&gt;&lt;/font&gt;" style="text;html=1;resizable=0;autosize=1;align=center;verticalAlign=middle;points=[];fillColor=none;strokeColor=none;rounded=0;" vertex="1" parent="1">
          <mxGeometry x="-95" y="346" width="100" height="30" as="geometry" />
        </mxCell>
        <mxCell id="okRBM69BKqi_v_l5vlfQ-15" value="&lt;font style=&quot;font-size: 15px;&quot; face=&quot;Verdana&quot;&gt;&lt;b&gt;1d Conv&lt;br&gt;Transpose&lt;br&gt;&lt;/b&gt;&lt;/font&gt;" style="text;html=1;resizable=0;autosize=1;align=center;verticalAlign=middle;points=[];fillColor=none;strokeColor=none;rounded=0;" vertex="1" parent="1">
          <mxGeometry x="530" y="400" width="110" height="50" as="geometry" />
        </mxCell>
        <mxCell id="okRBM69BKqi_v_l5vlfQ-16" value="&lt;font style=&quot;font-size: 15px;&quot; face=&quot;Verdana&quot;&gt;&lt;b&gt;1d Conv&lt;br&gt;Transpose&lt;br&gt;&lt;/b&gt;&lt;/font&gt;" style="text;html=1;resizable=0;autosize=1;align=center;verticalAlign=middle;points=[];fillColor=none;strokeColor=none;rounded=0;" vertex="1" parent="1">
          <mxGeometry x="780" y="400" width="110" height="50" as="geometry" />
        </mxCell>
        <mxCell id="okRBM69BKqi_v_l5vlfQ-17" value="&lt;font style=&quot;font-size: 15px;&quot; face=&quot;Verdana&quot;&gt;&lt;b&gt;Latent Space&lt;br&gt;&lt;/b&gt;&lt;/font&gt;" style="text;html=1;resizable=0;autosize=1;align=center;verticalAlign=middle;points=[];fillColor=none;strokeColor=none;rounded=0;" vertex="1" parent="1">
          <mxGeometry x="150" y="442" width="130" height="30" as="geometry" />
        </mxCell>
        <mxCell id="okRBM69BKqi_v_l5vlfQ-18" value="" style="html=1;shadow=0;dashed=0;align=center;verticalAlign=middle;shape=mxgraph.arrows2.arrow;dy=0.55;dx=20.23;notch=0;fillColor=#f5f5f5;strokeColor=#666666;fontColor=#333333;" vertex="1" parent="1">
          <mxGeometry x="990" y="341.5" width="50" height="39" as="geometry" />
        </mxCell>
      </root>
    </mxGraphModel>
  </diagram>
</mxfile>
